<mxfile host="app.diagrams.net" modified="2024-05-15T20:29:46.967Z" agent="Mozilla/5.0 (Windows NT 10.0; Win64; x64) AppleWebKit/537.36 (KHTML, like Gecko) Chrome/124.0.0.0 Safari/537.36 Edg/124.0.0.0" etag="kUtlpGAiKAUJzewcebVM" version="24.4.2" type="google">
  <diagram id="C5RBs43oDa-KdzZeNtuy" name="Page-1">
    <mxGraphModel grid="1" page="1" gridSize="10" guides="1" tooltips="1" connect="1" arrows="1" fold="1" pageScale="1" pageWidth="827" pageHeight="1169" math="0" shadow="0">
      <root>
        <mxCell id="WIyWlLk6GJQsqaUBKTNV-0" />
        <mxCell id="WIyWlLk6GJQsqaUBKTNV-1" parent="WIyWlLk6GJQsqaUBKTNV-0" />
        <mxCell id="ORUjKMPv2vKjZehIr710-236" value="" style="group" connectable="0" vertex="1" parent="WIyWlLk6GJQsqaUBKTNV-1">
          <mxGeometry x="-770" y="310" width="2360" height="1320" as="geometry" />
        </mxCell>
        <mxCell id="1ajMpOEWdIn4cz9Z4kbx-151" value="" style="strokeWidth=1;shadow=0;dashed=0;align=center;html=1;shape=mxgraph.mockup.containers.browserWindow;rSize=0;strokeColor=#666666;strokeColor2=#008cff;strokeColor3=#c4c4c4;mainText=,;recursiveResize=0;" vertex="1" parent="ORUjKMPv2vKjZehIr710-236">
          <mxGeometry x="1259.7297297297298" y="33.41772151898734" width="749.4594594594595" height="597.3417721518988" as="geometry" />
        </mxCell>
        <mxCell id="1ajMpOEWdIn4cz9Z4kbx-152" value="formPage" style="strokeWidth=1;shadow=0;dashed=0;align=center;html=1;shape=mxgraph.mockup.containers.anchor;fontSize=17;fontColor=#666666;align=left;whiteSpace=wrap;" vertex="1" parent="1ajMpOEWdIn4cz9Z4kbx-151">
          <mxGeometry x="58.997837837837835" y="16.585316455696205" width="87.70270270270271" height="21.721518987341774" as="geometry" />
        </mxCell>
        <mxCell id="1ajMpOEWdIn4cz9Z4kbx-153" value="https://www.ExpensesTracker.com/FormPage" style="strokeWidth=1;shadow=0;dashed=0;align=center;html=1;shape=mxgraph.mockup.containers.anchor;rSize=0;fontSize=17;fontColor=#666666;align=left;" vertex="1" parent="1ajMpOEWdIn4cz9Z4kbx-151">
          <mxGeometry x="120.27000000000001" y="56.580000000000005" width="366.35" height="29.87" as="geometry" />
        </mxCell>
        <mxCell id="1ajMpOEWdIn4cz9Z4kbx-173" value="" style="group;dashed=1;dashPattern=1 4;" connectable="0" vertex="1" parent="1ajMpOEWdIn4cz9Z4kbx-151">
          <mxGeometry x="59" y="186.58556962025318" width="637.8378378378378" height="430.2531645569621" as="geometry" />
        </mxCell>
        <mxCell id="1ajMpOEWdIn4cz9Z4kbx-169" value="" style="rounded=0;whiteSpace=wrap;html=1;" vertex="1" parent="1ajMpOEWdIn4cz9Z4kbx-173">
          <mxGeometry width="637.8378378378378" height="392.6582278481013" as="geometry" />
        </mxCell>
        <mxCell id="1ajMpOEWdIn4cz9Z4kbx-369" value="" style="group" connectable="0" vertex="1" parent="1ajMpOEWdIn4cz9Z4kbx-173">
          <mxGeometry x="249.5540540540541" y="8.354430379746837" width="382.7027027027027" height="359.240506329114" as="geometry" />
        </mxCell>
        <mxCell id="1ajMpOEWdIn4cz9Z4kbx-365" value="" style="group" connectable="0" vertex="1" parent="1ajMpOEWdIn4cz9Z4kbx-369">
          <mxGeometry width="382.7027027027027" height="334.1772151898735" as="geometry" />
        </mxCell>
        <mxCell id="1ajMpOEWdIn4cz9Z4kbx-250" value="Transaction Period" style="fillColor=none;strokeColor=none;html=1;fontSize=11;fontStyle=0;align=left;fontColor=#596780;fontStyle=1;fontSize=11" vertex="1" parent="1ajMpOEWdIn4cz9Z4kbx-365">
          <mxGeometry width="306.1621621621622" height="11.232847569407511" as="geometry" />
        </mxCell>
        <mxCell id="1ajMpOEWdIn4cz9Z4kbx-251" value="" style="rounded=1;arcSize=9;fillColor=#F7F8F9;align=left;spacingLeft=5;strokeColor=#DEE1E6;html=1;strokeWidth=2;fontSize=12" vertex="1" parent="1ajMpOEWdIn4cz9Z4kbx-365">
          <mxGeometry y="14.041059461759392" width="369.9459459459459" height="18.534198489522396" as="geometry" />
        </mxCell>
        <mxCell id="1ajMpOEWdIn4cz9Z4kbx-252" value="Name" style="fillColor=none;strokeColor=none;html=1;fontSize=11;fontStyle=0;align=left;fontColor=#596780;fontStyle=1;fontSize=11" vertex="1" parent="1ajMpOEWdIn4cz9Z4kbx-365">
          <mxGeometry y="33.69854270822253" width="306.1621621621622" height="11.232847569407511" as="geometry" />
        </mxCell>
        <mxCell id="1ajMpOEWdIn4cz9Z4kbx-253" value="" style="rounded=1;arcSize=9;fillColor=#F7F8F9;align=left;spacingLeft=5;strokeColor=#DEE1E6;html=1;strokeWidth=2;fontSize=12" vertex="1" parent="1ajMpOEWdIn4cz9Z4kbx-365">
          <mxGeometry y="47.73960216998192" width="369.9459459459459" height="18.534198489522396" as="geometry" />
        </mxCell>
        <mxCell id="1ajMpOEWdIn4cz9Z4kbx-254" value="Type&lt;span style=&quot;white-space: pre;&quot;&gt;&#x9;&lt;/span&gt;" style="fillColor=none;strokeColor=none;html=1;fontSize=11;fontStyle=0;align=left;fontColor=#596780;fontStyle=1;fontSize=11" vertex="1" parent="1ajMpOEWdIn4cz9Z4kbx-365">
          <mxGeometry y="66.27380065950432" width="306.1621621621622" height="11.232847569407511" as="geometry" />
        </mxCell>
        <mxCell id="1ajMpOEWdIn4cz9Z4kbx-255" value="" style="rounded=1;arcSize=9;fillColor=#F7F8F9;align=left;spacingLeft=5;strokeColor=#DEE1E6;html=1;strokeWidth=2;fontSize=12" vertex="1" parent="1ajMpOEWdIn4cz9Z4kbx-365">
          <mxGeometry y="80.31486012126372" width="369.9459459459459" height="18.534198489522396" as="geometry" />
        </mxCell>
        <mxCell id="1ajMpOEWdIn4cz9Z4kbx-271" value="" style="rounded=1;arcSize=9;fillColor=#F7F8F9;align=left;spacingLeft=5;strokeColor=#DEE1E6;html=1;strokeWidth=2;fontSize=12" vertex="1" parent="1ajMpOEWdIn4cz9Z4kbx-365">
          <mxGeometry y="112.89011807254549" width="369.9459459459459" height="18.534198489522396" as="geometry" />
        </mxCell>
        <mxCell id="1ajMpOEWdIn4cz9Z4kbx-279" value="" style="group" connectable="0" vertex="1" parent="1ajMpOEWdIn4cz9Z4kbx-365">
          <mxGeometry y="167.08692266780136" width="191.35135135135133" height="36.50675460057441" as="geometry" />
        </mxCell>
        <mxCell id="1ajMpOEWdIn4cz9Z4kbx-277" value="Amount" style="fillColor=none;strokeColor=none;html=1;fontSize=11;fontStyle=0;align=left;fontColor=#596780;fontStyle=1;fontSize=11" vertex="1" parent="1ajMpOEWdIn4cz9Z4kbx-279">
          <mxGeometry width="158.3597390493942" height="11.232847569407511" as="geometry" />
        </mxCell>
        <mxCell id="1ajMpOEWdIn4cz9Z4kbx-278" value="" style="rounded=1;arcSize=9;fillColor=#F7F8F9;align=left;spacingLeft=5;strokeColor=#DEE1E6;html=1;strokeWidth=2;fontSize=12" vertex="1" parent="1ajMpOEWdIn4cz9Z4kbx-279">
          <mxGeometry y="14.041059461759392" width="165.8378378378378" height="22.465695138815022" as="geometry" />
        </mxCell>
        <mxCell id="1ajMpOEWdIn4cz9Z4kbx-284" value="" style="rounded=1;arcSize=9;fillColor=#F7F8F9;align=left;spacingLeft=5;strokeColor=#DEE1E6;html=1;strokeWidth=2;fontSize=12" vertex="1" parent="1ajMpOEWdIn4cz9Z4kbx-365">
          <mxGeometry x="204.10810810810813" y="181.1279821295607" width="165.8378378378378" height="22.465695138815022" as="geometry" />
        </mxCell>
        <mxCell id="1ajMpOEWdIn4cz9Z4kbx-285" value="Category" style="fillColor=none;strokeColor=none;html=1;fontSize=11;fontStyle=0;align=left;fontColor=#596780;fontStyle=1;fontSize=11" vertex="1" parent="1ajMpOEWdIn4cz9Z4kbx-365">
          <mxGeometry x="204.10810810810813" y="167.08692266780136" width="158.3597390493942" height="11.232847569407511" as="geometry" />
        </mxCell>
        <mxCell id="1ajMpOEWdIn4cz9Z4kbx-288" value="" style="group" connectable="0" vertex="1" parent="1ajMpOEWdIn4cz9Z4kbx-365">
          <mxGeometry y="206.40188916072762" width="191.35135135135133" height="36.50675460057441" as="geometry" />
        </mxCell>
        <mxCell id="1ajMpOEWdIn4cz9Z4kbx-289" value="Description" style="fillColor=none;strokeColor=none;html=1;fontSize=11;fontStyle=0;align=left;fontColor=#596780;fontStyle=1;fontSize=11" vertex="1" parent="1ajMpOEWdIn4cz9Z4kbx-288">
          <mxGeometry width="158.3597390493942" height="11.232847569407511" as="geometry" />
        </mxCell>
        <mxCell id="1ajMpOEWdIn4cz9Z4kbx-290" value="" style="rounded=1;arcSize=9;fillColor=#F7F8F9;align=left;spacingLeft=5;strokeColor=#DEE1E6;html=1;strokeWidth=2;fontSize=12" vertex="1" parent="1ajMpOEWdIn4cz9Z4kbx-288">
          <mxGeometry y="14.041059461759392" width="165.8378378378378" height="22.465695138815022" as="geometry" />
        </mxCell>
        <mxCell id="1ajMpOEWdIn4cz9Z4kbx-291" value="" style="group" connectable="0" vertex="1" parent="1ajMpOEWdIn4cz9Z4kbx-365">
          <mxGeometry x="191.35135135135133" y="228.8675842995427" width="191.35135135135133" height="36.50675460057441" as="geometry" />
        </mxCell>
        <mxCell id="1ajMpOEWdIn4cz9Z4kbx-292" value="Source" style="fillColor=none;strokeColor=none;html=1;fontSize=11;fontStyle=0;align=left;fontColor=#596780;fontStyle=1;fontSize=11" vertex="1" parent="1ajMpOEWdIn4cz9Z4kbx-291">
          <mxGeometry x="12.756756756756758" y="-22.465695138815022" width="158.3597390493942" height="11.232847569407511" as="geometry" />
        </mxCell>
        <mxCell id="1ajMpOEWdIn4cz9Z4kbx-293" value="" style="rounded=1;arcSize=9;fillColor=#F7F8F9;align=left;spacingLeft=5;strokeColor=#DEE1E6;html=1;strokeWidth=2;fontSize=12" vertex="1" parent="1ajMpOEWdIn4cz9Z4kbx-291">
          <mxGeometry x="12.756756756756758" y="-8.424635677055633" width="165.8378378378378" height="22.465695138815022" as="geometry" />
        </mxCell>
        <mxCell id="1ajMpOEWdIn4cz9Z4kbx-294" value="" style="group" connectable="0" vertex="1" parent="1ajMpOEWdIn4cz9Z4kbx-365">
          <mxGeometry y="242.90864376130207" width="191.35135135135133" height="36.50675460057441" as="geometry" />
        </mxCell>
        <mxCell id="1ajMpOEWdIn4cz9Z4kbx-295" value="Destination" style="fillColor=none;strokeColor=none;html=1;fontSize=11;fontStyle=0;align=left;fontColor=#596780;fontStyle=1;fontSize=11" vertex="1" parent="1ajMpOEWdIn4cz9Z4kbx-294">
          <mxGeometry width="158.3597390493942" height="11.232847569407511" as="geometry" />
        </mxCell>
        <mxCell id="1ajMpOEWdIn4cz9Z4kbx-296" value="" style="rounded=1;arcSize=9;fillColor=#F7F8F9;align=left;spacingLeft=5;strokeColor=#DEE1E6;html=1;strokeWidth=2;fontSize=12" vertex="1" parent="1ajMpOEWdIn4cz9Z4kbx-294">
          <mxGeometry y="14.041059461759392" width="165.8378378378378" height="22.465695138815022" as="geometry" />
        </mxCell>
        <mxCell id="1ajMpOEWdIn4cz9Z4kbx-299" value="" style="group" connectable="0" vertex="1" parent="1ajMpOEWdIn4cz9Z4kbx-365">
          <mxGeometry y="279.41539836187644" width="369.9459459459459" height="58.97244973938945" as="geometry" />
        </mxCell>
        <mxCell id="1ajMpOEWdIn4cz9Z4kbx-374" value="" style="edgeStyle=orthogonalEdgeStyle;rounded=0;orthogonalLoop=1;jettySize=auto;html=1;" edge="1" parent="1ajMpOEWdIn4cz9Z4kbx-299" source="1ajMpOEWdIn4cz9Z4kbx-297" target="1ajMpOEWdIn4cz9Z4kbx-298">
          <mxGeometry relative="1" as="geometry" />
        </mxCell>
        <mxCell id="1ajMpOEWdIn4cz9Z4kbx-297" value="Date" style="fillColor=none;strokeColor=none;html=1;fontSize=11;fontStyle=0;align=left;fontColor=#596780;fontStyle=1;fontSize=11" vertex="1" parent="1ajMpOEWdIn4cz9Z4kbx-299">
          <mxGeometry width="306.16216216216213" height="11.232847569407513" as="geometry" />
        </mxCell>
        <mxCell id="1ajMpOEWdIn4cz9Z4kbx-298" value="" style="rounded=1;arcSize=9;fillColor=#F7F8F9;align=left;spacingLeft=5;strokeColor=#DEE1E6;html=1;strokeWidth=2;fontSize=12" vertex="1" parent="1ajMpOEWdIn4cz9Z4kbx-299">
          <mxGeometry y="14.041059461759392" width="369.9459459459459" height="22.465695138815025" as="geometry" />
        </mxCell>
        <mxCell id="1ajMpOEWdIn4cz9Z4kbx-361" value="" style="shape=image;html=1;verticalAlign=top;verticalLabelPosition=bottom;labelBackgroundColor=#ffffff;imageAspect=0;aspect=fixed;image=https://cdn1.iconfinder.com/data/icons/material-core/18/check-box-outline-blank-128.png" vertex="1" parent="1ajMpOEWdIn4cz9Z4kbx-299">
          <mxGeometry y="44.93139027763005" width="10.216119469251655" height="10.216119469251655" as="geometry" />
        </mxCell>
        <mxCell id="1ajMpOEWdIn4cz9Z4kbx-362" value="Payment Ended" style="text;html=1;align=center;verticalAlign=middle;whiteSpace=wrap;rounded=0;" vertex="1" parent="1ajMpOEWdIn4cz9Z4kbx-299">
          <mxGeometry x="25.513513513513512" y="42.12317838527817" width="127.56756756756755" height="16.84927135411127" as="geometry" />
        </mxCell>
        <mxCell id="1ajMpOEWdIn4cz9Z4kbx-356" value="" style="shape=image;html=1;verticalAlign=top;verticalLabelPosition=bottom;labelBackgroundColor=#ffffff;imageAspect=0;aspect=fixed;image=https://cdn1.iconfinder.com/data/icons/material-core/10/arrow-drop-down-128.png" vertex="1" parent="1ajMpOEWdIn4cz9Z4kbx-365">
          <mxGeometry x="350.45202702702704" y="115.85706414211259" width="11.748537389639404" height="11.748537389639404" as="geometry" />
        </mxCell>
        <mxCell id="1ajMpOEWdIn4cz9Z4kbx-357" value="Creation Date" style="fillColor=none;strokeColor=none;html=1;fontSize=11;fontStyle=0;align=left;fontColor=#596780;fontStyle=1;fontSize=11" vertex="1" parent="1ajMpOEWdIn4cz9Z4kbx-365">
          <mxGeometry y="131.42431656206787" width="306.1621621621622" height="11.232847569407511" as="geometry" />
        </mxCell>
        <mxCell id="1ajMpOEWdIn4cz9Z4kbx-358" value="" style="rounded=1;arcSize=9;fillColor=#F7F8F9;align=left;spacingLeft=5;strokeColor=#DEE1E6;html=1;strokeWidth=2;fontSize=12" vertex="1" parent="1ajMpOEWdIn4cz9Z4kbx-365">
          <mxGeometry y="145.46537602382728" width="369.9459459459459" height="18.534198489522396" as="geometry" />
        </mxCell>
        <mxCell id="1ajMpOEWdIn4cz9Z4kbx-359" value="" style="shape=image;html=1;verticalAlign=top;verticalLabelPosition=bottom;labelBackgroundColor=#ffffff;imageAspect=0;aspect=fixed;image=https://cdn1.iconfinder.com/data/icons/material-core/10/arrow-drop-down-128.png" vertex="1" parent="1ajMpOEWdIn4cz9Z4kbx-365">
          <mxGeometry x="350.45202702702704" y="83.28180619083078" width="11.748537389639404" height="11.748537389639404" as="geometry" />
        </mxCell>
        <mxCell id="1ajMpOEWdIn4cz9Z4kbx-360" value="" style="shape=image;html=1;verticalAlign=top;verticalLabelPosition=bottom;labelBackgroundColor=#ffffff;imageAspect=0;aspect=fixed;image=https://cdn1.iconfinder.com/data/icons/material-core/10/arrow-drop-down-128.png" vertex="1" parent="1ajMpOEWdIn4cz9Z4kbx-365">
          <mxGeometry x="350.45202702702704" y="19.981410488245935" width="11.748537389639404" height="11.748537389639404" as="geometry" />
        </mxCell>
        <mxCell id="1ajMpOEWdIn4cz9Z4kbx-368" value="Submit" style="rounded=1;fillColor=#0057D8;strokeColor=none;html=1;whiteSpace=wrap;fontColor=#ffffff;align=center;verticalAlign=middle;fontStyle=0;fontSize=12;sketch=0;" vertex="1" parent="1ajMpOEWdIn4cz9Z4kbx-369">
          <mxGeometry x="310.14864864864865" y="334.1772151898735" width="55.810810810810814" height="25.06329113924051" as="geometry" />
        </mxCell>
        <mxCell id="1ajMpOEWdIn4cz9Z4kbx-376" value="" style="shape=mxgraph.mockup.markup.scratchOut;shadow=0;dashed=0;html=1;whiteSpace=wrap;strokeColor=#999999;strokeWidth=4;" vertex="1" parent="1ajMpOEWdIn4cz9Z4kbx-173">
          <mxGeometry x="23.12162162162162" y="33.41772151898735" width="111.62162162162163" height="16.708860759493675" as="geometry" />
        </mxCell>
        <mxCell id="1ajMpOEWdIn4cz9Z4kbx-377" value="" style="shape=mxgraph.mockup.markup.scratchOut;shadow=0;dashed=0;html=1;whiteSpace=wrap;strokeColor=#999999;strokeWidth=4;" vertex="1" parent="1ajMpOEWdIn4cz9Z4kbx-173">
          <mxGeometry x="23.12162162162162" y="58.481012658227854" width="152.2837837837838" height="8.354430379746837" as="geometry" />
        </mxCell>
        <mxCell id="1ajMpOEWdIn4cz9Z4kbx-270" value="Payment Method" style="fillColor=none;strokeColor=none;html=1;fontSize=11;fontStyle=0;align=left;fontColor=#596780;fontStyle=1;fontSize=11" vertex="1" parent="1ajMpOEWdIn4cz9Z4kbx-173">
          <mxGeometry x="249.5540540540541" y="107.20348899053292" width="306.1621621621622" height="11.232847569407511" as="geometry" />
        </mxCell>
        <mxCell id="1ajMpOEWdIn4cz9Z4kbx-227" value="" style="shape=mxgraph.mockup.markup.scratchOut;shadow=0;dashed=0;html=1;whiteSpace=wrap;strokeColor=#999999;strokeWidth=4;" vertex="1" parent="1ajMpOEWdIn4cz9Z4kbx-151">
          <mxGeometry x="59" y="136.5848101265823" width="111.62162162162163" height="16.708860759493675" as="geometry" />
        </mxCell>
        <mxCell id="1ajMpOEWdIn4cz9Z4kbx-375" value="" style="shape=mxgraph.mockup.markup.scratchOut;shadow=0;dashed=0;html=1;whiteSpace=wrap;strokeColor=#999999;strokeWidth=4;" vertex="1" parent="1ajMpOEWdIn4cz9Z4kbx-151">
          <mxGeometry x="59" y="156.5808860759494" width="231.21621621621622" height="8.354430379746837" as="geometry" />
        </mxCell>
        <mxCell id="1ajMpOEWdIn4cz9Z4kbx-155" value="" style="group" connectable="0" vertex="1" parent="ORUjKMPv2vKjZehIr710-236">
          <mxGeometry x="295" width="820" height="601.5189873417721" as="geometry" />
        </mxCell>
        <mxCell id="1ajMpOEWdIn4cz9Z4kbx-1" value="" style="strokeWidth=1;shadow=0;dashed=0;align=center;html=1;shape=mxgraph.mockup.containers.browserWindow;rSize=0;strokeColor=#666666;strokeColor2=#008cff;strokeColor3=#c4c4c4;mainText=,;recursiveResize=0;" vertex="1" parent="1ajMpOEWdIn4cz9Z4kbx-155">
          <mxGeometry x="19.93243243243243" y="58.48101265822784" width="749.4594594594595" height="543.0379746835442" as="geometry" />
        </mxCell>
        <mxCell id="1ajMpOEWdIn4cz9Z4kbx-2" value="Dashboard" style="strokeWidth=1;shadow=0;dashed=0;align=center;html=1;shape=mxgraph.mockup.containers.anchor;fontSize=17;fontColor=#666666;align=left;whiteSpace=wrap;" vertex="1" parent="1ajMpOEWdIn4cz9Z4kbx-1">
          <mxGeometry x="55.07" y="21.52" width="74.93" height="8.48" as="geometry" />
        </mxCell>
        <mxCell id="1ajMpOEWdIn4cz9Z4kbx-3" value="https://www.ExpensesTracker.com/dashboard" style="strokeWidth=1;shadow=0;dashed=0;align=center;html=1;shape=mxgraph.mockup.containers.anchor;rSize=0;fontSize=17;fontColor=#666666;align=left;" vertex="1" parent="1ajMpOEWdIn4cz9Z4kbx-1">
          <mxGeometry x="125.06864864864865" y="61.51658227848101" width="199.32432432432432" height="21.72151898734177" as="geometry" />
        </mxCell>
        <mxCell id="1ajMpOEWdIn4cz9Z4kbx-105" value="" style="group" connectable="0" vertex="1" parent="1ajMpOEWdIn4cz9Z4kbx-1">
          <mxGeometry x="55.065405405405414" y="171.5153164556962" width="625.8783783783784" height="183.79746835443035" as="geometry" />
        </mxCell>
        <mxCell id="1ajMpOEWdIn4cz9Z4kbx-101" value="&lt;span style=&quot;white-space: pre;&quot;&gt;&#x9;&lt;/span&gt;&lt;font style=&quot;font-size: 15px;&quot;&gt;Search&lt;/font&gt;" style="rounded=0;whiteSpace=wrap;html=1;align=left;" vertex="1" parent="1ajMpOEWdIn4cz9Z4kbx-105">
          <mxGeometry width="625.8783783783784" height="33.417721518987335" as="geometry" />
        </mxCell>
        <mxCell id="1ajMpOEWdIn4cz9Z4kbx-104" value="" style="group" connectable="0" vertex="1" parent="1ajMpOEWdIn4cz9Z4kbx-105">
          <mxGeometry x="57.80405405405406" y="50.12658227848101" width="510.2702702702703" height="133.67088607594934" as="geometry" />
        </mxCell>
        <mxCell id="1ajMpOEWdIn4cz9Z4kbx-102" value="" style="group" connectable="0" vertex="1" parent="1ajMpOEWdIn4cz9Z4kbx-104">
          <mxGeometry y="44.556962025316444" width="510.2702702702703" height="89.11392405063289" as="geometry" />
        </mxCell>
        <mxCell id="1ajMpOEWdIn4cz9Z4kbx-62" value="" style="shape=table;html=1;whiteSpace=wrap;startSize=0;container=1;collapsible=0;childLayout=tableLayout;strokeWidth=2;" vertex="1" parent="1ajMpOEWdIn4cz9Z4kbx-102">
          <mxGeometry x="170.0900900900901" width="170.0900900900901" height="89.11392405063289" as="geometry" />
        </mxCell>
        <mxCell id="1ajMpOEWdIn4cz9Z4kbx-63" value="" style="shape=tableRow;horizontal=0;startSize=0;swimlaneHead=0;swimlaneBody=0;top=0;left=0;bottom=0;right=0;collapsible=0;dropTarget=0;fillColor=none;points=[[0,0.5],[1,0.5]];portConstraint=eastwest;" vertex="1" parent="1ajMpOEWdIn4cz9Z4kbx-62">
          <mxGeometry width="170.0900900900901" height="31" as="geometry" />
        </mxCell>
        <mxCell id="1ajMpOEWdIn4cz9Z4kbx-64" value="Type" style="shape=partialRectangle;html=1;whiteSpace=wrap;connectable=0;fillColor=none;top=0;left=0;bottom=0;right=0;overflow=hidden;fontStyle=1" vertex="1" parent="1ajMpOEWdIn4cz9Z4kbx-63">
          <mxGeometry width="86" height="31" as="geometry">
            <mxRectangle width="86" height="31" as="alternateBounds" />
          </mxGeometry>
        </mxCell>
        <mxCell id="1ajMpOEWdIn4cz9Z4kbx-65" value="Category" style="shape=partialRectangle;html=1;whiteSpace=wrap;connectable=0;fillColor=none;top=0;left=0;bottom=0;right=0;overflow=hidden;fontStyle=1" vertex="1" parent="1ajMpOEWdIn4cz9Z4kbx-63">
          <mxGeometry x="86" width="84" height="31" as="geometry">
            <mxRectangle width="84" height="31" as="alternateBounds" />
          </mxGeometry>
        </mxCell>
        <mxCell id="1ajMpOEWdIn4cz9Z4kbx-66" value="" style="shape=tableRow;horizontal=0;startSize=0;swimlaneHead=0;swimlaneBody=0;top=0;left=0;bottom=0;right=0;collapsible=0;dropTarget=0;fillColor=none;points=[[0,0.5],[1,0.5]];portConstraint=eastwest;" vertex="1" parent="1ajMpOEWdIn4cz9Z4kbx-62">
          <mxGeometry y="31" width="170.0900900900901" height="28" as="geometry" />
        </mxCell>
        <mxCell id="1ajMpOEWdIn4cz9Z4kbx-67" value="" style="shape=partialRectangle;html=1;whiteSpace=wrap;connectable=0;fillColor=none;top=0;left=0;bottom=0;right=0;overflow=hidden;" vertex="1" parent="1ajMpOEWdIn4cz9Z4kbx-66">
          <mxGeometry width="86" height="28" as="geometry">
            <mxRectangle width="86" height="28" as="alternateBounds" />
          </mxGeometry>
        </mxCell>
        <mxCell id="1ajMpOEWdIn4cz9Z4kbx-68" value="" style="shape=partialRectangle;html=1;whiteSpace=wrap;connectable=0;fillColor=none;top=0;left=0;bottom=0;right=0;overflow=hidden;" vertex="1" parent="1ajMpOEWdIn4cz9Z4kbx-66">
          <mxGeometry x="86" width="84" height="28" as="geometry">
            <mxRectangle width="84" height="28" as="alternateBounds" />
          </mxGeometry>
        </mxCell>
        <mxCell id="1ajMpOEWdIn4cz9Z4kbx-69" value="" style="shape=tableRow;horizontal=0;startSize=0;swimlaneHead=0;swimlaneBody=0;top=0;left=0;bottom=0;right=0;collapsible=0;dropTarget=0;fillColor=none;points=[[0,0.5],[1,0.5]];portConstraint=eastwest;" vertex="1" parent="1ajMpOEWdIn4cz9Z4kbx-62">
          <mxGeometry y="59" width="170.0900900900901" height="30" as="geometry" />
        </mxCell>
        <mxCell id="1ajMpOEWdIn4cz9Z4kbx-70" value="" style="shape=partialRectangle;html=1;whiteSpace=wrap;connectable=0;fillColor=none;top=0;left=0;bottom=0;right=0;overflow=hidden;" vertex="1" parent="1ajMpOEWdIn4cz9Z4kbx-69">
          <mxGeometry width="86" height="30" as="geometry">
            <mxRectangle width="86" height="30" as="alternateBounds" />
          </mxGeometry>
        </mxCell>
        <mxCell id="1ajMpOEWdIn4cz9Z4kbx-71" value="" style="shape=partialRectangle;html=1;whiteSpace=wrap;connectable=0;fillColor=none;top=0;left=0;bottom=0;right=0;overflow=hidden;" vertex="1" parent="1ajMpOEWdIn4cz9Z4kbx-69">
          <mxGeometry x="86" width="84" height="30" as="geometry">
            <mxRectangle width="84" height="30" as="alternateBounds" />
          </mxGeometry>
        </mxCell>
        <mxCell id="1ajMpOEWdIn4cz9Z4kbx-10" value="" style="shape=table;html=1;whiteSpace=wrap;startSize=0;container=1;collapsible=0;childLayout=tableLayout;strokeWidth=2;" vertex="1" parent="1ajMpOEWdIn4cz9Z4kbx-102">
          <mxGeometry width="170.0900900900901" height="89.11392405063289" as="geometry" />
        </mxCell>
        <mxCell id="1ajMpOEWdIn4cz9Z4kbx-11" value="" style="shape=tableRow;horizontal=0;startSize=0;swimlaneHead=0;swimlaneBody=0;top=0;left=0;bottom=0;right=0;collapsible=0;dropTarget=0;fillColor=none;points=[[0,0.5],[1,0.5]];portConstraint=eastwest;" vertex="1" parent="1ajMpOEWdIn4cz9Z4kbx-10">
          <mxGeometry width="170.0900900900901" height="31" as="geometry" />
        </mxCell>
        <mxCell id="1ajMpOEWdIn4cz9Z4kbx-12" value="Name" style="shape=partialRectangle;html=1;whiteSpace=wrap;connectable=0;fillColor=none;top=0;left=0;bottom=0;right=0;overflow=hidden;fontStyle=1" vertex="1" parent="1ajMpOEWdIn4cz9Z4kbx-11">
          <mxGeometry width="86" height="31" as="geometry">
            <mxRectangle width="86" height="31" as="alternateBounds" />
          </mxGeometry>
        </mxCell>
        <mxCell id="1ajMpOEWdIn4cz9Z4kbx-13" value="Amount" style="shape=partialRectangle;html=1;whiteSpace=wrap;connectable=0;fillColor=none;top=0;left=0;bottom=0;right=0;overflow=hidden;fontStyle=1" vertex="1" parent="1ajMpOEWdIn4cz9Z4kbx-11">
          <mxGeometry x="86" width="84" height="31" as="geometry">
            <mxRectangle width="84" height="31" as="alternateBounds" />
          </mxGeometry>
        </mxCell>
        <mxCell id="1ajMpOEWdIn4cz9Z4kbx-14" value="" style="shape=tableRow;horizontal=0;startSize=0;swimlaneHead=0;swimlaneBody=0;top=0;left=0;bottom=0;right=0;collapsible=0;dropTarget=0;fillColor=none;points=[[0,0.5],[1,0.5]];portConstraint=eastwest;" vertex="1" parent="1ajMpOEWdIn4cz9Z4kbx-10">
          <mxGeometry y="31" width="170.0900900900901" height="28" as="geometry" />
        </mxCell>
        <mxCell id="1ajMpOEWdIn4cz9Z4kbx-15" value="" style="shape=partialRectangle;html=1;whiteSpace=wrap;connectable=0;fillColor=none;top=0;left=0;bottom=0;right=0;overflow=hidden;" vertex="1" parent="1ajMpOEWdIn4cz9Z4kbx-14">
          <mxGeometry width="86" height="28" as="geometry">
            <mxRectangle width="86" height="28" as="alternateBounds" />
          </mxGeometry>
        </mxCell>
        <mxCell id="1ajMpOEWdIn4cz9Z4kbx-16" value="" style="shape=partialRectangle;html=1;whiteSpace=wrap;connectable=0;fillColor=none;top=0;left=0;bottom=0;right=0;overflow=hidden;" vertex="1" parent="1ajMpOEWdIn4cz9Z4kbx-14">
          <mxGeometry x="86" width="84" height="28" as="geometry">
            <mxRectangle width="84" height="28" as="alternateBounds" />
          </mxGeometry>
        </mxCell>
        <mxCell id="1ajMpOEWdIn4cz9Z4kbx-17" value="" style="shape=tableRow;horizontal=0;startSize=0;swimlaneHead=0;swimlaneBody=0;top=0;left=0;bottom=0;right=0;collapsible=0;dropTarget=0;fillColor=none;points=[[0,0.5],[1,0.5]];portConstraint=eastwest;" vertex="1" parent="1ajMpOEWdIn4cz9Z4kbx-10">
          <mxGeometry y="59" width="170.0900900900901" height="30" as="geometry" />
        </mxCell>
        <mxCell id="1ajMpOEWdIn4cz9Z4kbx-18" value="" style="shape=partialRectangle;html=1;whiteSpace=wrap;connectable=0;fillColor=none;top=0;left=0;bottom=0;right=0;overflow=hidden;" vertex="1" parent="1ajMpOEWdIn4cz9Z4kbx-17">
          <mxGeometry width="86" height="30" as="geometry">
            <mxRectangle width="86" height="30" as="alternateBounds" />
          </mxGeometry>
        </mxCell>
        <mxCell id="1ajMpOEWdIn4cz9Z4kbx-19" value="" style="shape=partialRectangle;html=1;whiteSpace=wrap;connectable=0;fillColor=none;top=0;left=0;bottom=0;right=0;overflow=hidden;" vertex="1" parent="1ajMpOEWdIn4cz9Z4kbx-17">
          <mxGeometry x="86" width="84" height="30" as="geometry">
            <mxRectangle width="84" height="30" as="alternateBounds" />
          </mxGeometry>
        </mxCell>
        <mxCell id="1ajMpOEWdIn4cz9Z4kbx-85" value="" style="shape=table;html=1;whiteSpace=wrap;startSize=0;container=1;collapsible=0;childLayout=tableLayout;strokeWidth=2;" vertex="1" parent="1ajMpOEWdIn4cz9Z4kbx-102">
          <mxGeometry x="340.1801801801802" width="170.0900900900901" height="89.11392405063289" as="geometry" />
        </mxCell>
        <mxCell id="1ajMpOEWdIn4cz9Z4kbx-86" value="" style="shape=tableRow;horizontal=0;startSize=0;swimlaneHead=0;swimlaneBody=0;top=0;left=0;bottom=0;right=0;collapsible=0;dropTarget=0;fillColor=none;points=[[0,0.5],[1,0.5]];portConstraint=eastwest;" vertex="1" parent="1ajMpOEWdIn4cz9Z4kbx-85">
          <mxGeometry width="170.0900900900901" height="31" as="geometry" />
        </mxCell>
        <mxCell id="1ajMpOEWdIn4cz9Z4kbx-87" value="Date" style="shape=partialRectangle;html=1;whiteSpace=wrap;connectable=0;fillColor=none;top=0;left=0;bottom=0;right=0;overflow=hidden;fontStyle=1" vertex="1" parent="1ajMpOEWdIn4cz9Z4kbx-86">
          <mxGeometry width="86" height="31" as="geometry">
            <mxRectangle width="86" height="31" as="alternateBounds" />
          </mxGeometry>
        </mxCell>
        <mxCell id="1ajMpOEWdIn4cz9Z4kbx-88" value="" style="shape=partialRectangle;html=1;whiteSpace=wrap;connectable=0;fillColor=none;top=0;left=0;bottom=0;right=0;overflow=hidden;fontStyle=1" vertex="1" parent="1ajMpOEWdIn4cz9Z4kbx-86">
          <mxGeometry x="86" width="84" height="31" as="geometry">
            <mxRectangle width="84" height="31" as="alternateBounds" />
          </mxGeometry>
        </mxCell>
        <mxCell id="1ajMpOEWdIn4cz9Z4kbx-89" value="" style="shape=tableRow;horizontal=0;startSize=0;swimlaneHead=0;swimlaneBody=0;top=0;left=0;bottom=0;right=0;collapsible=0;dropTarget=0;fillColor=none;points=[[0,0.5],[1,0.5]];portConstraint=eastwest;" vertex="1" parent="1ajMpOEWdIn4cz9Z4kbx-85">
          <mxGeometry y="31" width="170.0900900900901" height="28" as="geometry" />
        </mxCell>
        <mxCell id="1ajMpOEWdIn4cz9Z4kbx-90" value="" style="shape=partialRectangle;html=1;whiteSpace=wrap;connectable=0;fillColor=none;top=0;left=0;bottom=0;right=0;overflow=hidden;" vertex="1" parent="1ajMpOEWdIn4cz9Z4kbx-89">
          <mxGeometry width="86" height="28" as="geometry">
            <mxRectangle width="86" height="28" as="alternateBounds" />
          </mxGeometry>
        </mxCell>
        <mxCell id="1ajMpOEWdIn4cz9Z4kbx-91" value="" style="shape=partialRectangle;html=1;whiteSpace=wrap;connectable=0;fillColor=none;top=0;left=0;bottom=0;right=0;overflow=hidden;" vertex="1" parent="1ajMpOEWdIn4cz9Z4kbx-89">
          <mxGeometry x="86" width="84" height="28" as="geometry">
            <mxRectangle width="84" height="28" as="alternateBounds" />
          </mxGeometry>
        </mxCell>
        <mxCell id="1ajMpOEWdIn4cz9Z4kbx-92" value="" style="shape=tableRow;horizontal=0;startSize=0;swimlaneHead=0;swimlaneBody=0;top=0;left=0;bottom=0;right=0;collapsible=0;dropTarget=0;fillColor=none;points=[[0,0.5],[1,0.5]];portConstraint=eastwest;" vertex="1" parent="1ajMpOEWdIn4cz9Z4kbx-85">
          <mxGeometry y="59" width="170.0900900900901" height="30" as="geometry" />
        </mxCell>
        <mxCell id="1ajMpOEWdIn4cz9Z4kbx-93" value="" style="shape=partialRectangle;html=1;whiteSpace=wrap;connectable=0;fillColor=none;top=0;left=0;bottom=0;right=0;overflow=hidden;" vertex="1" parent="1ajMpOEWdIn4cz9Z4kbx-92">
          <mxGeometry width="86" height="30" as="geometry">
            <mxRectangle width="86" height="30" as="alternateBounds" />
          </mxGeometry>
        </mxCell>
        <mxCell id="1ajMpOEWdIn4cz9Z4kbx-94" value="" style="shape=partialRectangle;html=1;whiteSpace=wrap;connectable=0;fillColor=none;top=0;left=0;bottom=0;right=0;overflow=hidden;" vertex="1" parent="1ajMpOEWdIn4cz9Z4kbx-92">
          <mxGeometry x="86" width="84" height="30" as="geometry">
            <mxRectangle width="84" height="30" as="alternateBounds" />
          </mxGeometry>
        </mxCell>
        <mxCell id="1ajMpOEWdIn4cz9Z4kbx-97" value="" style="group" connectable="0" vertex="1" parent="1ajMpOEWdIn4cz9Z4kbx-102">
          <mxGeometry x="450.73873873873873" y="35.0886075949367" width="31.18318318318318" height="18.93670886075949" as="geometry" />
        </mxCell>
        <mxCell id="1ajMpOEWdIn4cz9Z4kbx-95" value="" style="html=1;verticalLabelPosition=bottom;align=center;labelBackgroundColor=#ffffff;verticalAlign=top;strokeWidth=2;strokeColor=#0080F0;shadow=0;dashed=0;shape=mxgraph.ios7.icons.trashcan;" vertex="1" parent="1ajMpOEWdIn4cz9Z4kbx-97">
          <mxGeometry x="21.733733733733736" y="1.1139240506329111" width="9.44944944944945" height="16.708860759493668" as="geometry" />
        </mxCell>
        <mxCell id="1ajMpOEWdIn4cz9Z4kbx-96" value="" style="html=1;dashed=0;aspect=fixed;verticalLabelPosition=bottom;verticalAlign=top;align=center;shape=mxgraph.gmdl.edit;strokeColor=none;fillColor=#737373;shadow=0;sketch=0;" vertex="1" parent="1ajMpOEWdIn4cz9Z4kbx-97">
          <mxGeometry width="15.701583807252494" height="15.701583807252494" as="geometry" />
        </mxCell>
        <mxCell id="1ajMpOEWdIn4cz9Z4kbx-98" value="" style="group" connectable="0" vertex="1" parent="1ajMpOEWdIn4cz9Z4kbx-102">
          <mxGeometry x="450.73873873873873" y="66.83544303797467" width="31.18318318318318" height="18.93670886075949" as="geometry" />
        </mxCell>
        <mxCell id="1ajMpOEWdIn4cz9Z4kbx-99" value="" style="html=1;verticalLabelPosition=bottom;align=center;labelBackgroundColor=#ffffff;verticalAlign=top;strokeWidth=2;strokeColor=#0080F0;shadow=0;dashed=0;shape=mxgraph.ios7.icons.trashcan;" vertex="1" parent="1ajMpOEWdIn4cz9Z4kbx-98">
          <mxGeometry x="21.733733733733736" y="1.1139240506329111" width="9.44944944944945" height="16.708860759493668" as="geometry" />
        </mxCell>
        <mxCell id="1ajMpOEWdIn4cz9Z4kbx-100" value="" style="html=1;dashed=0;aspect=fixed;verticalLabelPosition=bottom;verticalAlign=top;align=center;shape=mxgraph.gmdl.edit;strokeColor=none;fillColor=#737373;shadow=0;sketch=0;" vertex="1" parent="1ajMpOEWdIn4cz9Z4kbx-98">
          <mxGeometry width="15.701583807252494" height="15.701583807252494" as="geometry" />
        </mxCell>
        <mxCell id="1ajMpOEWdIn4cz9Z4kbx-103" value="&lt;b style=&quot;font-size: 14px;&quot;&gt;Income: &lt;font color=&quot;#00ff00&quot;&gt;$$$$&lt;/font&gt;&amp;nbsp;&lt;span style=&quot;white-space: pre;&quot;&gt;&#x9;&lt;/span&gt;&lt;span style=&quot;white-space: pre;&quot;&gt;&#x9;&lt;/span&gt;Expenses: &lt;font color=&quot;#ff9191&quot;&gt;$$$$&lt;/font&gt;&lt;/b&gt;" style="text;html=1;align=left;verticalAlign=middle;whiteSpace=wrap;rounded=0;" vertex="1" parent="1ajMpOEWdIn4cz9Z4kbx-104">
          <mxGeometry width="283.48348348348344" height="33.417721518987335" as="geometry" />
        </mxCell>
        <mxCell id="1ajMpOEWdIn4cz9Z4kbx-4" value="&lt;font style=&quot;font-size: 32px;&quot;&gt;Dashboard&lt;/font&gt;" style="text;html=1;align=center;verticalAlign=middle;whiteSpace=wrap;rounded=0;" vertex="1" parent="1ajMpOEWdIn4cz9Z4kbx-155">
          <mxGeometry y="25.063291139240505" width="789.3243243243244" height="25.063291139240505" as="geometry" />
        </mxCell>
        <mxCell id="ORUjKMPv2vKjZehIr710-794" value="" style="group" connectable="0" vertex="1" parent="1ajMpOEWdIn4cz9Z4kbx-155">
          <mxGeometry x="19.93" y="170" width="750.07" height="37.59" as="geometry" />
        </mxCell>
        <mxCell id="ORUjKMPv2vKjZehIr710-795" value="" style="verticalLabelPosition=bottom;shadow=0;dashed=0;align=center;html=1;verticalAlign=top;strokeWidth=1;shape=mxgraph.mockup.markup.line;strokeColor=#999999;" vertex="1" parent="ORUjKMPv2vKjZehIr710-794">
          <mxGeometry y="20.883333333333336" width="750.07" height="16.70666666666667" as="geometry" />
        </mxCell>
        <mxCell id="ORUjKMPv2vKjZehIr710-796" value="&lt;span style=&quot;color: rgba(0, 0, 0, 0); font-family: monospace; font-size: 0px; text-align: start; text-wrap: nowrap;&quot;&gt;%3CmxGraphModel%3E%3Croot%3E%3CmxCell%20id%3D%220%22%2F%3E%3CmxCell%20id%3D%221%22%20parent%3D%220%22%2F%3E%3CmxCell%20id%3D%222%22%20value%3D%22%22%20style%3D%22shape%3Dmxgraph.mockup.markup.scratchOut%3Bshadow%3D0%3Bdashed%3D0%3Bhtml%3D1%3BwhiteSpace%3Dwrap%3BstrokeColor%3D%23999999%3BstrokeWidth%3D4%3B%22%20vertex%3D%221%22%20parent%3D%221%22%3E%3CmxGeometry%20x%3D%221665%22%20y%3D%221300%22%20width%3D%22100%22%20height%3D%2260%22%20as%3D%22geometry%22%2F%3E%3C%2FmxCell%3E%3C%2Froot%3E%3C%2FmxGraphModel%3E&lt;/span&gt;" style="shape=mxgraph.mockup.markup.scratchOut;shadow=0;dashed=0;html=1;whiteSpace=wrap;strokeColor=#999999;strokeWidth=4;" vertex="1" parent="ORUjKMPv2vKjZehIr710-794">
          <mxGeometry x="16.1305376344086" y="4.176666666666668" width="32.2610752688172" height="16.70666666666667" as="geometry" />
        </mxCell>
        <mxCell id="ORUjKMPv2vKjZehIr710-797" value="Home&amp;nbsp;" style="text;html=1;align=center;verticalAlign=middle;whiteSpace=wrap;rounded=0;" vertex="1" parent="ORUjKMPv2vKjZehIr710-794">
          <mxGeometry x="277.445247311828" width="48.391612903225806" height="25.06" as="geometry" />
        </mxCell>
        <mxCell id="ORUjKMPv2vKjZehIr710-798" value="Dashboard" style="text;html=1;align=center;verticalAlign=middle;whiteSpace=wrap;rounded=0;" vertex="1" parent="ORUjKMPv2vKjZehIr710-794">
          <mxGeometry x="350.83919354838713" width="48.391612903225806" height="25.06" as="geometry" />
        </mxCell>
        <mxCell id="ORUjKMPv2vKjZehIr710-799" value="Form" style="text;html=1;align=center;verticalAlign=middle;whiteSpace=wrap;rounded=0;" vertex="1" parent="ORUjKMPv2vKjZehIr710-794">
          <mxGeometry x="427.459247311828" width="48.391612903225806" height="25.06" as="geometry" />
        </mxCell>
        <mxCell id="1ajMpOEWdIn4cz9Z4kbx-378" value="&lt;font style=&quot;font-size: 32px;&quot;&gt;FormPage&lt;/font&gt;" style="text;html=1;align=center;verticalAlign=middle;whiteSpace=wrap;rounded=0;" vertex="1" parent="ORUjKMPv2vKjZehIr710-236">
          <mxGeometry x="1543.168918918919" width="182.5810810810811" height="25.063291139240505" as="geometry" />
        </mxCell>
        <UserObject label="" link="&lt;mxGraphModel&gt;&lt;root&gt;&lt;mxCell id=&quot;0&quot;/&gt;&lt;mxCell id=&quot;1&quot; parent=&quot;0&quot;/&gt;&lt;mxCell id=&quot;2&quot; value=&quot;&quot; style=&quot;group&quot; connectable=&quot;0&quot; vertex=&quot;1&quot; parent=&quot;1&quot;&gt;&lt;mxGeometry x=&quot;190&quot; y=&quot;1090&quot; width=&quot;990&quot; height=&quot;663&quot; as=&quot;geometry&quot;/&gt;&lt;/mxCell&gt;&lt;mxCell id=&quot;3&quot; value=&quot;&quot; style=&quot;strokeWidth=1;shadow=0;dashed=0;align=center;html=1;shape=mxgraph.mockup.containers.browserWindow;rSize=0;strokeColor=#666666;strokeColor2=#008cff;strokeColor3=#c4c4c4;mainText=,;recursiveResize=0;&quot; vertex=&quot;1&quot; parent=&quot;2&quot;&gt;&lt;mxGeometry y=&quot;43&quot; width=&quot;990&quot; height=&quot;620&quot; as=&quot;geometry&quot;/&gt;&lt;/mxCell&gt;&lt;mxCell id=&quot;4&quot; value=&quot;HomePage&quot; style=&quot;strokeWidth=1;shadow=0;dashed=0;align=center;html=1;shape=mxgraph.mockup.containers.anchor;fontSize=17;fontColor=#666666;align=left;whiteSpace=wrap;&quot; vertex=&quot;1&quot; parent=&quot;3&quot;&gt;&lt;mxGeometry x=&quot;60&quot; y=&quot;12&quot; width=&quot;110&quot; height=&quot;26&quot; as=&quot;geometry&quot;/&gt;&lt;/mxCell&gt;&lt;mxCell id=&quot;5&quot; value=&quot;https://www.draw.io/Home&quot; style=&quot;strokeWidth=1;shadow=0;dashed=0;align=center;html=1;shape=mxgraph.mockup.containers.anchor;rSize=0;fontSize=17;fontColor=#666666;align=left;&quot; vertex=&quot;1&quot; parent=&quot;3&quot;&gt;&lt;mxGeometry x=&quot;130&quot; y=&quot;60&quot; width=&quot;250&quot; height=&quot;26&quot; as=&quot;geometry&quot;/&gt;&lt;/mxCell&gt;&lt;mxCell id=&quot;6&quot; value=&quot;&quot; style=&quot;verticalLabelPosition=bottom;shadow=0;dashed=0;align=center;html=1;verticalAlign=top;strokeWidth=1;shape=mxgraph.mockup.graphics.pieChart;strokeColor=#008cff;parts=10,20,35;partColors=#e0e0e0,#d0d0d0,#c0c0c0,#b0b0b0,#a0a0a0;strokeWidth=2;&quot; vertex=&quot;1&quot; parent=&quot;3&quot;&gt;&lt;mxGeometry x=&quot;94&quot; y=&quot;337&quot; width=&quot;260&quot; height=&quot;245&quot; as=&quot;geometry&quot;/&gt;&lt;/mxCell&gt;&lt;mxCell id=&quot;7&quot; value=&quot;&quot; style=&quot;verticalLabelPosition=bottom;shadow=0;dashed=0;align=center;html=1;verticalAlign=top;strokeWidth=1;shape=mxgraph.mockup.graphics.columnChart;strokeColor=none;strokeColor2=none;strokeColor3=#666666;fillColor2=#008cff;fillColor3=#dddddd;&quot; vertex=&quot;1&quot; parent=&quot;3&quot;&gt;&lt;mxGeometry x=&quot;500&quot; y=&quot;344.5&quot; width=&quot;460&quot; height=&quot;230&quot; as=&quot;geometry&quot;/&gt;&lt;/mxCell&gt;&lt;mxCell id=&quot;8&quot; value=&quot;&quot; style=&quot;group&quot; vertex=&quot;1&quot; connectable=&quot;0&quot; parent=&quot;3&quot;&gt;&lt;mxGeometry x=&quot;14&quot; y=&quot;137&quot; width=&quot;156&quot; height=&quot;130&quot; as=&quot;geometry&quot;/&gt;&lt;/mxCell&gt;&lt;UserObject label=&quot;&amp;lt;mxGraphModel&amp;gt;&amp;lt;root&amp;gt;&amp;lt;mxCell id=&amp;quot;0&amp;quot;/&amp;gt;&amp;lt;mxCell id=&amp;quot;1&amp;quot; parent=&amp;quot;0&amp;quot;/&amp;gt;&amp;lt;mxCell id=&amp;quot;2&amp;quot; value=&amp;quot;&amp;amp;lt;span style=&amp;amp;quot;color: rgba(0, 0, 0, 0); font-family: monospace; font-size: 0px; text-align: start; text-wrap: nowrap;&amp;amp;quot;&amp;amp;gt;%3CmxGraphModel%3E%3Croot%3E%3CmxCell%20id%3D%220%22%2F%3E%3CmxCell%20id%3D%221%22%20parent%3D%220%22%2F%3E%3CmxCell%20id%3D%222%22%20value%3D%22%22%20style%3D%22strokeWidth%3D1%3Bshadow%3D0%3Bdashed%3D0%3Balign%3Dcenter%3Bhtml%3D1%3Bshape%3Dmxgraph.mockup.containers.browserWindow%3BrSize%3D0%3BstrokeColor%3D%23666666%3BstrokeColor2%3D%23008cff%3BstrokeColor3%3D%23c4c4c4%3BmainText%3D%2C%3BrecursiveResize%3D0%3B%22%20vertex%3D%221%22%20parent%3D%221%22%3E%3CmxGeometry%20x%3D%22190%22%20y%3D%221120%22%20width%3D%22990%22%20height%3D%22620%22%20as%3D%22geometry%22%2F%3E%3C%2FmxCell%3E%3CmxCell%20id%3D%223%22%20value%3D%22HomePage%22%20style%3D%22strokeWidth%3D1%3Bshadow%3D0%3Bdashed%3D0%3Balign%3Dcenter%3Bhtml%3D1%3Bshape%3Dmxgraph.mockup.containers.anchor%3BfontSize%3D17%3BfontColor%3D%23666666%3Balign%3Dleft%3BwhiteSpace%3Dwrap%3B%22%20vertex%3D%221%22%20parent%3D%222%22%3E%3CmxGeometry%20x%3D%2260%22%20y%3D%2212%22%20width%3D%22110%22%20height%3D%2226%22%20as%3D%22geometry%22%2F%3E%3C%2FmxCell%3E%3CmxCell%20id%3D%224%22%20value%3D%22https%3A%2F%2Fwww.draw.io%2FHome%22%20style%3D%22strokeWidth%3D1%3Bshadow%3D0%3Bdashed%3D0%3Balign%3Dcenter%3Bhtml%3D1%3Bshape%3Dmxgraph.mockup.containers.anchor%3BrSize%3D0%3BfontSize%3D17%3BfontColor%3D%23666666%3Balign%3Dleft%3B%22%20vertex%3D%221%22%20parent%3D%222%22%3E%3CmxGeometry%20x%3D%22130%22%20y%3D%2260%22%20width%3D%22250%22%20height%3D%2226%22%20as%3D%22geometry%22%2F%3E%3C%2FmxCell%3E%3CmxCell%20id%3D%225%22%20value%3D%22%22%20style%3D%22verticalLabelPosition%3Dbottom%3Bshadow%3D0%3Bdashed%3D0%3Balign%3Dcenter%3Bhtml%3D1%3BverticalAlign%3Dtop%3BstrokeWidth%3D1%3Bshape%3Dmxgraph.mockup.graphics.pieChart%3BstrokeColor%3D%23008cff%3Bparts%3D10%2C20%2C35%3BpartColors%3D%23e0e0e0%2C%23d0d0d0%2C%23c0c0c0%2C%23b0b0b0%2C%23a0a0a0%3BstrokeWidth%3D2%3B%22%20vertex%3D%221%22%20parent%3D%222%22%3E%3CmxGeometry%20x%3D%22120%22%20y%3D%22320%22%20width%3D%22200%22%20height%3D%22200%22%20as%3D%22geometry%22%2F%3E%3C%2FmxCell%3E%3CmxCell%20id%3D%226%22%20value%3D%22%22%20style%3D%22verticalLabelPosition%3Dbottom%3Bshadow%3D0%3Bdashed%3D0%3Balign%3Dcenter%3Bhtml%3D1%3BverticalAlign%3Dtop%3BstrokeWidth%3D1%3Bshape%3Dmxgraph.mockup.graphics.columnChart%3BstrokeColor%3Dnone%3BstrokeColor2%3Dnone%3BstrokeColor3%3D%23666666%3BfillColor2%3D%23008cff%3BfillColor3%3D%23dddddd%3B%22%20vertex%3D%221%22%20parent%3D%222%22%3E%3CmxGeometry%20x%3D%22520%22%20y%3D%22320%22%20width%3D%22400%22%20height%3D%22200%22%20as%3D%22geometry%22%2F%3E%3C%2FmxCell%3E%3CmxCell%20id%3D%227%22%20value%3D%22%22%20style%3D%22rounded%3D1%3BwhiteSpace%3Dwrap%3Bhtml%3D1%3B%22%20vertex%3D%221%22%20parent%3D%222%22%3E%3CmxGeometry%20x%3D%2230%22%20y%3D%22120%22%20width%3D%22210%22%20height%3D%22160%22%20as%3D%22geometry%22%2F%3E%3C%2FmxCell%3E%3C%2Froot%3E%3C%2FmxGraphModel%3E&quot; link=&quot;&amp;lt;mxGraphModel&amp;gt;&amp;lt;root&amp;gt;&amp;lt;mxCell id=&amp;quot;0&amp;quot;/&amp;gt;&amp;lt;mxCell id=&amp;quot;1&amp;quot; parent=&amp;quot;0&amp;quot;/&amp;gt;&amp;lt;mxCell id=&amp;quot;2&amp;quot; value=&amp;quot;&amp;amp;lt;span style=&amp;amp;quot;color: rgba(0, 0, 0, 0); font-family: monospace; font-size: 0px; text-align: start; text-wrap: nowrap;&amp;amp;quot;&amp;amp;gt;%3CmxGraphModel%3E%3Croot%3E%3CmxCell%20id%3D%220%22%2F%3E%3CmxCell%20id%3D%221%22%20parent%3D%220%22%2F%3E%3CmxCell%20id%3D%222%22%20value%3D%22%22%20style%3D%22strokeWidth%3D1%3Bshadow%3D0%3Bdashed%3D0%3Balign%3Dcenter%3Bhtml%3D1%3Bshape%3Dmxgraph.mockup.containers.browserWindow%3BrSize%3D0%3BstrokeColor%3D%23666666%3BstrokeColor2%3D%23008cff%3BstrokeColor3%3D%23c4c4c4%3BmainText%3D%2C%3BrecursiveResize%3D0%3B%22%20vertex%3D%221%22%20parent%3D%221%22%3E%3CmxGeometry%20x%3D%22190%22%20y%3D%221120%22%20width%3D%22990%22%20height%3D%22620%22%20as%3D%22geometry%22%2F%3E%3C%2FmxCell%3E%3CmxCell%20id%3D%223%22%20value%3D%22HomePage%22%20style%3D%22strokeWidth%3D1%3Bshadow%3D0%3Bdashed%3D0%3Balign%3Dcenter%3Bhtml%3D1%3Bshape%3Dmxgraph.mockup.containers.anchor%3BfontSize%3D17%3BfontColor%3D%23666666%3Balign%3Dleft%3BwhiteSpace%3Dwrap%3B%22%20vertex%3D%221%22%20parent%3D%222%22%3E%3CmxGeometry%20x%3D%2260%22%20y%3D%2212%22%20width%3D%22110%22%20height%3D%2226%22%20as%3D%22geometry%22%2F%3E%3C%2FmxCell%3E%3CmxCell%20id%3D%224%22%20value%3D%22https%3A%2F%2Fwww.draw.io%2FHome%22%20style%3D%22strokeWidth%3D1%3Bshadow%3D0%3Bdashed%3D0%3Balign%3Dcenter%3Bhtml%3D1%3Bshape%3Dmxgraph.mockup.containers.anchor%3BrSize%3D0%3BfontSize%3D17%3BfontColor%3D%23666666%3Balign%3Dleft%3B%22%20vertex%3D%221%22%20parent%3D%222%22%3E%3CmxGeometry%20x%3D%22130%22%20y%3D%2260%22%20width%3D%22250%22%20height%3D%2226%22%20as%3D%22geometry%22%2F%3E%3C%2FmxCell%3E%3CmxCell%20id%3D%225%22%20value%3D%22%22%20style%3D%22verticalLabelPosition%3Dbottom%3Bshadow%3D0%3Bdashed%3D0%3Balign%3Dcenter%3Bhtml%3D1%3BverticalAlign%3Dtop%3BstrokeWidth%3D1%3Bshape%3Dmxgraph.mockup.graphics.pieChart%3BstrokeColor%3D%23008cff%3Bparts%3D10%2C20%2C35%3BpartColors%3D%23e0e0e0%2C%23d0d0d0%2C%23c0c0c0%2C%23b0b0b0%2C%23a0a0a0%3BstrokeWidth%3D2%3B%22%20vertex%3D%221%22%20parent%3D%222%22%3E%3CmxGeometry%20x%3D%22120%22%20y%3D%22320%22%20width%3D%22200%22%20height%3D%22200%22%20as%3D%22geometry%22%2F%3E%3C%2FmxCell%3E%3CmxCell%20id%3D%226%22%20value%3D%22%22%20style%3D%22verticalLabelPosition%3Dbottom%3Bshadow%3D0%3Bdashed%3D0%3Balign%3Dcenter%3Bhtml%3D1%3BverticalAlign%3Dtop%3BstrokeWidth%3D1%3Bshape%3Dmxgraph.mockup.graphics.columnChart%3BstrokeColor%3Dnone%3BstrokeColor2%3Dnone%3BstrokeColor3%3D%23666666%3BfillColor2%3D%23008cff%3BfillColor3%3D%23dddddd%3B%22%20vertex%3D%221%22%20parent%3D%222%22%3E%3CmxGeometry%20x%3D%22520%22%20y%3D%22320%22%20width%3D%22400%22%20height%3D%22200%22%20as%3D%22geometry%22%2F%3E%3C%2FmxCell%3E%3CmxCell%20id%3D%227%22%20value%3D%22%22%20style%3D%22rounded%3D1%3BwhiteSpace%3Dwrap%3Bhtml%3D1%3B%22%20vertex%3D%221%22%20parent%3D%222%22%3E%3CmxGeometry%20x%3D%2230%22%20y%3D%22120%22%20width%3D%22210%22%20height%3D%22160%22%20as%3D%22geometry%22%2F%3E%3C%2FmxCell%3E%3C%2Froot%3E%3C%2FmxGraphModel%3E" id="1ajMpOEWdIn4cz9Z4kbx-406">
          <mxCell style="group" connectable="0" vertex="1" parent="ORUjKMPv2vKjZehIr710-236">
            <mxGeometry x="773.3783783783784" y="676.7088607594936" width="790" height="576.4556962025316" as="geometry" />
          </mxCell>
        </UserObject>
        <mxCell id="1ajMpOEWdIn4cz9Z4kbx-380" value="" style="strokeWidth=1;shadow=0;dashed=0;align=center;html=1;shape=mxgraph.mockup.containers.browserWindow;rSize=0;strokeColor=#666666;strokeColor2=#008cff;strokeColor3=#c4c4c4;mainText=,;recursiveResize=0;" vertex="1" parent="1ajMpOEWdIn4cz9Z4kbx-406">
          <mxGeometry y="35.92405063291139" width="790" height="540.5316455696202" as="geometry" />
        </mxCell>
        <mxCell id="1ajMpOEWdIn4cz9Z4kbx-381" value="HomePage" style="strokeWidth=1;shadow=0;dashed=0;align=center;html=1;shape=mxgraph.mockup.containers.anchor;fontSize=17;fontColor=#666666;align=left;whiteSpace=wrap;" vertex="1" parent="1ajMpOEWdIn4cz9Z4kbx-380">
          <mxGeometry x="56.620000000000005" y="20" width="87.7" height="11.75" as="geometry" />
        </mxCell>
        <mxCell id="1ajMpOEWdIn4cz9Z4kbx-382" value="" style="strokeWidth=1;shadow=0;dashed=0;align=center;html=1;shape=mxgraph.mockup.containers.anchor;rSize=0;fontSize=17;fontColor=#666666;align=left;" vertex="1" parent="1ajMpOEWdIn4cz9Z4kbx-380">
          <mxGeometry x="103.64864864864865" y="50.12658227848101" width="199.32432432432432" height="21.72151898734177" as="geometry" />
        </mxCell>
        <mxCell id="1ajMpOEWdIn4cz9Z4kbx-383" value="" style="verticalLabelPosition=bottom;shadow=0;dashed=0;align=center;html=1;verticalAlign=top;strokeWidth=1;shape=mxgraph.mockup.graphics.pieChart;strokeColor=#008cff;parts=10,20,35;partColors=#e0e0e0,#d0d0d0,#c0c0c0,#b0b0b0,#a0a0a0;strokeWidth=2;" vertex="1" parent="1ajMpOEWdIn4cz9Z4kbx-380">
          <mxGeometry x="74.94594594594595" y="323.31645569620247" width="207.2972972972973" height="204.68354430379745" as="geometry" />
        </mxCell>
        <mxCell id="1ajMpOEWdIn4cz9Z4kbx-384" value="" style="verticalLabelPosition=bottom;shadow=0;dashed=0;align=center;html=1;verticalAlign=top;strokeWidth=1;shape=mxgraph.mockup.graphics.columnChart;strokeColor=none;strokeColor2=none;strokeColor3=#666666;fillColor2=#008cff;fillColor3=#dddddd;" vertex="1" parent="1ajMpOEWdIn4cz9Z4kbx-380">
          <mxGeometry x="398.64864864864865" y="325.82278481012656" width="366.7567567567568" height="192.1518987341772" as="geometry" />
        </mxCell>
        <mxCell id="ORUjKMPv2vKjZehIr710-208" value="" style="group" connectable="0" vertex="1" parent="1ajMpOEWdIn4cz9Z4kbx-380">
          <mxGeometry x="11.162162162162163" y="139.51898734177215" width="124.37837837837839" height="108.60759493670885" as="geometry" />
        </mxCell>
        <UserObject label="&lt;mxGraphModel&gt;&lt;root&gt;&lt;mxCell id=&quot;0&quot;/&gt;&lt;mxCell id=&quot;1&quot; parent=&quot;0&quot;/&gt;&lt;mxCell id=&quot;2&quot; value=&quot;&amp;lt;span style=&amp;quot;color: rgba(0, 0, 0, 0); font-family: monospace; font-size: 0px; text-align: start; text-wrap: nowrap;&amp;quot;&amp;gt;%3CmxGraphModel%3E%3Croot%3E%3CmxCell%20id%3D%220%22%2F%3E%3CmxCell%20id%3D%221%22%20parent%3D%220%22%2F%3E%3CmxCell%20id%3D%222%22%20value%3D%22%22%20style%3D%22strokeWidth%3D1%3Bshadow%3D0%3Bdashed%3D0%3Balign%3Dcenter%3Bhtml%3D1%3Bshape%3Dmxgraph.mockup.containers.browserWindow%3BrSize%3D0%3BstrokeColor%3D%23666666%3BstrokeColor2%3D%23008cff%3BstrokeColor3%3D%23c4c4c4%3BmainText%3D%2C%3BrecursiveResize%3D0%3B%22%20vertex%3D%221%22%20parent%3D%221%22%3E%3CmxGeometry%20x%3D%22190%22%20y%3D%221120%22%20width%3D%22990%22%20height%3D%22620%22%20as%3D%22geometry%22%2F%3E%3C%2FmxCell%3E%3CmxCell%20id%3D%223%22%20value%3D%22HomePage%22%20style%3D%22strokeWidth%3D1%3Bshadow%3D0%3Bdashed%3D0%3Balign%3Dcenter%3Bhtml%3D1%3Bshape%3Dmxgraph.mockup.containers.anchor%3BfontSize%3D17%3BfontColor%3D%23666666%3Balign%3Dleft%3BwhiteSpace%3Dwrap%3B%22%20vertex%3D%221%22%20parent%3D%222%22%3E%3CmxGeometry%20x%3D%2260%22%20y%3D%2212%22%20width%3D%22110%22%20height%3D%2226%22%20as%3D%22geometry%22%2F%3E%3C%2FmxCell%3E%3CmxCell%20id%3D%224%22%20value%3D%22https%3A%2F%2Fwww.draw.io%2FHome%22%20style%3D%22strokeWidth%3D1%3Bshadow%3D0%3Bdashed%3D0%3Balign%3Dcenter%3Bhtml%3D1%3Bshape%3Dmxgraph.mockup.containers.anchor%3BrSize%3D0%3BfontSize%3D17%3BfontColor%3D%23666666%3Balign%3Dleft%3B%22%20vertex%3D%221%22%20parent%3D%222%22%3E%3CmxGeometry%20x%3D%22130%22%20y%3D%2260%22%20width%3D%22250%22%20height%3D%2226%22%20as%3D%22geometry%22%2F%3E%3C%2FmxCell%3E%3CmxCell%20id%3D%225%22%20value%3D%22%22%20style%3D%22verticalLabelPosition%3Dbottom%3Bshadow%3D0%3Bdashed%3D0%3Balign%3Dcenter%3Bhtml%3D1%3BverticalAlign%3Dtop%3BstrokeWidth%3D1%3Bshape%3Dmxgraph.mockup.graphics.pieChart%3BstrokeColor%3D%23008cff%3Bparts%3D10%2C20%2C35%3BpartColors%3D%23e0e0e0%2C%23d0d0d0%2C%23c0c0c0%2C%23b0b0b0%2C%23a0a0a0%3BstrokeWidth%3D2%3B%22%20vertex%3D%221%22%20parent%3D%222%22%3E%3CmxGeometry%20x%3D%22120%22%20y%3D%22320%22%20width%3D%22200%22%20height%3D%22200%22%20as%3D%22geometry%22%2F%3E%3C%2FmxCell%3E%3CmxCell%20id%3D%226%22%20value%3D%22%22%20style%3D%22verticalLabelPosition%3Dbottom%3Bshadow%3D0%3Bdashed%3D0%3Balign%3Dcenter%3Bhtml%3D1%3BverticalAlign%3Dtop%3BstrokeWidth%3D1%3Bshape%3Dmxgraph.mockup.graphics.columnChart%3BstrokeColor%3Dnone%3BstrokeColor2%3Dnone%3BstrokeColor3%3D%23666666%3BfillColor2%3D%23008cff%3BfillColor3%3D%23dddddd%3B%22%20vertex%3D%221%22%20parent%3D%222%22%3E%3CmxGeometry%20x%3D%22520%22%20y%3D%22320%22%20width%3D%22400%22%20height%3D%22200%22%20as%3D%22geometry%22%2F%3E%3C%2FmxCell%3E%3CmxCell%20id%3D%227%22%20value%3D%22%22%20style%3D%22rounded%3D1%3BwhiteSpace%3Dwrap%3Bhtml%3D1%3B%22%20vertex%3D%221%22%20parent%3D%222%22%3E%3CmxGeometry%20x%3D%2230%22%20y%3D%22120%22%20width%3D%22210%22%20height%3D%22160%22%20as%3D%22geometry%22%2F%3E%3C%2FmxCell%3E%3C%2Froot%3E%3C%2FmxGraphModel%3E" link="&lt;mxGraphModel&gt;&lt;root&gt;&lt;mxCell id=&quot;0&quot;/&gt;&lt;mxCell id=&quot;1&quot; parent=&quot;0&quot;/&gt;&lt;mxCell id=&quot;2&quot; value=&quot;&amp;lt;span style=&amp;quot;color: rgba(0, 0, 0, 0); font-family: monospace; font-size: 0px; text-align: start; text-wrap: nowrap;&amp;quot;&amp;gt;%3CmxGraphModel%3E%3Croot%3E%3CmxCell%20id%3D%220%22%2F%3E%3CmxCell%20id%3D%221%22%20parent%3D%220%22%2F%3E%3CmxCell%20id%3D%222%22%20value%3D%22%22%20style%3D%22strokeWidth%3D1%3Bshadow%3D0%3Bdashed%3D0%3Balign%3Dcenter%3Bhtml%3D1%3Bshape%3Dmxgraph.mockup.containers.browserWindow%3BrSize%3D0%3BstrokeColor%3D%23666666%3BstrokeColor2%3D%23008cff%3BstrokeColor3%3D%23c4c4c4%3BmainText%3D%2C%3BrecursiveResize%3D0%3B%22%20vertex%3D%221%22%20parent%3D%221%22%3E%3CmxGeometry%20x%3D%22190%22%20y%3D%221120%22%20width%3D%22990%22%20height%3D%22620%22%20as%3D%22geometry%22%2F%3E%3C%2FmxCell%3E%3CmxCell%20id%3D%223%22%20value%3D%22HomePage%22%20style%3D%22strokeWidth%3D1%3Bshadow%3D0%3Bdashed%3D0%3Balign%3Dcenter%3Bhtml%3D1%3Bshape%3Dmxgraph.mockup.containers.anchor%3BfontSize%3D17%3BfontColor%3D%23666666%3Balign%3Dleft%3BwhiteSpace%3Dwrap%3B%22%20vertex%3D%221%22%20parent%3D%222%22%3E%3CmxGeometry%20x%3D%2260%22%20y%3D%2212%22%20width%3D%22110%22%20height%3D%2226%22%20as%3D%22geometry%22%2F%3E%3C%2FmxCell%3E%3CmxCell%20id%3D%224%22%20value%3D%22https%3A%2F%2Fwww.draw.io%2FHome%22%20style%3D%22strokeWidth%3D1%3Bshadow%3D0%3Bdashed%3D0%3Balign%3Dcenter%3Bhtml%3D1%3Bshape%3Dmxgraph.mockup.containers.anchor%3BrSize%3D0%3BfontSize%3D17%3BfontColor%3D%23666666%3Balign%3Dleft%3B%22%20vertex%3D%221%22%20parent%3D%222%22%3E%3CmxGeometry%20x%3D%22130%22%20y%3D%2260%22%20width%3D%22250%22%20height%3D%2226%22%20as%3D%22geometry%22%2F%3E%3C%2FmxCell%3E%3CmxCell%20id%3D%225%22%20value%3D%22%22%20style%3D%22verticalLabelPosition%3Dbottom%3Bshadow%3D0%3Bdashed%3D0%3Balign%3Dcenter%3Bhtml%3D1%3BverticalAlign%3Dtop%3BstrokeWidth%3D1%3Bshape%3Dmxgraph.mockup.graphics.pieChart%3BstrokeColor%3D%23008cff%3Bparts%3D10%2C20%2C35%3BpartColors%3D%23e0e0e0%2C%23d0d0d0%2C%23c0c0c0%2C%23b0b0b0%2C%23a0a0a0%3BstrokeWidth%3D2%3B%22%20vertex%3D%221%22%20parent%3D%222%22%3E%3CmxGeometry%20x%3D%22120%22%20y%3D%22320%22%20width%3D%22200%22%20height%3D%22200%22%20as%3D%22geometry%22%2F%3E%3C%2FmxCell%3E%3CmxCell%20id%3D%226%22%20value%3D%22%22%20style%3D%22verticalLabelPosition%3Dbottom%3Bshadow%3D0%3Bdashed%3D0%3Balign%3Dcenter%3Bhtml%3D1%3BverticalAlign%3Dtop%3BstrokeWidth%3D1%3Bshape%3Dmxgraph.mockup.graphics.columnChart%3BstrokeColor%3Dnone%3BstrokeColor2%3Dnone%3BstrokeColor3%3D%23666666%3BfillColor2%3D%23008cff%3BfillColor3%3D%23dddddd%3B%22%20vertex%3D%221%22%20parent%3D%222%22%3E%3CmxGeometry%20x%3D%22520%22%20y%3D%22320%22%20width%3D%22400%22%20height%3D%22200%22%20as%3D%22geometry%22%2F%3E%3C%2FmxCell%3E%3CmxCell%20id%3D%227%22%20value%3D%22%22%20style%3D%22rounded%3D1%3BwhiteSpace%3Dwrap%3Bhtml%3D1%3B%22%20vertex%3D%221%22%20parent%3D%222%22%3E%3CmxGeometry%20x%3D%2230%22%20y%3D%22120%22%20width%3D%22210%22%20height%3D%22160%22%20as%3D%22geometry%22%2F%3E%3C%2FmxCell%3E%3C%2Froot%3E%3C%2FmxGraphModel%3E" id="1ajMpOEWdIn4cz9Z4kbx-387">
          <mxCell style="rounded=1;whiteSpace=wrap;html=1;" vertex="1" parent="ORUjKMPv2vKjZehIr710-208">
            <mxGeometry x="-2.37" y="26.13" width="124.37837837837839" height="108.60759493670885" as="geometry" />
          </mxCell>
        </UserObject>
        <mxCell id="1ajMpOEWdIn4cz9Z4kbx-400" value="" style="shape=mxgraph.mockup.markup.scratchOut;shadow=0;dashed=0;html=1;whiteSpace=wrap;strokeColor=#999999;strokeWidth=4;" vertex="1" parent="ORUjKMPv2vKjZehIr710-208">
          <mxGeometry x="7.6996138996139" y="52.26370253164556" width="104.24092664092663" height="56.340189873417714" as="geometry" />
        </mxCell>
        <mxCell id="ORUjKMPv2vKjZehIr710-215" value="" style="group" connectable="0" vertex="1" parent="1ajMpOEWdIn4cz9Z4kbx-380">
          <mxGeometry x="486.35135135135135" y="139.51898734177215" width="124.37837837837839" height="108.60759493670885" as="geometry" />
        </mxCell>
        <UserObject label="&lt;mxGraphModel&gt;&lt;root&gt;&lt;mxCell id=&quot;0&quot;/&gt;&lt;mxCell id=&quot;1&quot; parent=&quot;0&quot;/&gt;&lt;mxCell id=&quot;2&quot; value=&quot;&amp;lt;span style=&amp;quot;color: rgba(0, 0, 0, 0); font-family: monospace; font-size: 0px; text-align: start; text-wrap: nowrap;&amp;quot;&amp;gt;%3CmxGraphModel%3E%3Croot%3E%3CmxCell%20id%3D%220%22%2F%3E%3CmxCell%20id%3D%221%22%20parent%3D%220%22%2F%3E%3CmxCell%20id%3D%222%22%20value%3D%22%22%20style%3D%22strokeWidth%3D1%3Bshadow%3D0%3Bdashed%3D0%3Balign%3Dcenter%3Bhtml%3D1%3Bshape%3Dmxgraph.mockup.containers.browserWindow%3BrSize%3D0%3BstrokeColor%3D%23666666%3BstrokeColor2%3D%23008cff%3BstrokeColor3%3D%23c4c4c4%3BmainText%3D%2C%3BrecursiveResize%3D0%3B%22%20vertex%3D%221%22%20parent%3D%221%22%3E%3CmxGeometry%20x%3D%22190%22%20y%3D%221120%22%20width%3D%22990%22%20height%3D%22620%22%20as%3D%22geometry%22%2F%3E%3C%2FmxCell%3E%3CmxCell%20id%3D%223%22%20value%3D%22HomePage%22%20style%3D%22strokeWidth%3D1%3Bshadow%3D0%3Bdashed%3D0%3Balign%3Dcenter%3Bhtml%3D1%3Bshape%3Dmxgraph.mockup.containers.anchor%3BfontSize%3D17%3BfontColor%3D%23666666%3Balign%3Dleft%3BwhiteSpace%3Dwrap%3B%22%20vertex%3D%221%22%20parent%3D%222%22%3E%3CmxGeometry%20x%3D%2260%22%20y%3D%2212%22%20width%3D%22110%22%20height%3D%2226%22%20as%3D%22geometry%22%2F%3E%3C%2FmxCell%3E%3CmxCell%20id%3D%224%22%20value%3D%22https%3A%2F%2Fwww.draw.io%2FHome%22%20style%3D%22strokeWidth%3D1%3Bshadow%3D0%3Bdashed%3D0%3Balign%3Dcenter%3Bhtml%3D1%3Bshape%3Dmxgraph.mockup.containers.anchor%3BrSize%3D0%3BfontSize%3D17%3BfontColor%3D%23666666%3Balign%3Dleft%3B%22%20vertex%3D%221%22%20parent%3D%222%22%3E%3CmxGeometry%20x%3D%22130%22%20y%3D%2260%22%20width%3D%22250%22%20height%3D%2226%22%20as%3D%22geometry%22%2F%3E%3C%2FmxCell%3E%3CmxCell%20id%3D%225%22%20value%3D%22%22%20style%3D%22verticalLabelPosition%3Dbottom%3Bshadow%3D0%3Bdashed%3D0%3Balign%3Dcenter%3Bhtml%3D1%3BverticalAlign%3Dtop%3BstrokeWidth%3D1%3Bshape%3Dmxgraph.mockup.graphics.pieChart%3BstrokeColor%3D%23008cff%3Bparts%3D10%2C20%2C35%3BpartColors%3D%23e0e0e0%2C%23d0d0d0%2C%23c0c0c0%2C%23b0b0b0%2C%23a0a0a0%3BstrokeWidth%3D2%3B%22%20vertex%3D%221%22%20parent%3D%222%22%3E%3CmxGeometry%20x%3D%22120%22%20y%3D%22320%22%20width%3D%22200%22%20height%3D%22200%22%20as%3D%22geometry%22%2F%3E%3C%2FmxCell%3E%3CmxCell%20id%3D%226%22%20value%3D%22%22%20style%3D%22verticalLabelPosition%3Dbottom%3Bshadow%3D0%3Bdashed%3D0%3Balign%3Dcenter%3Bhtml%3D1%3BverticalAlign%3Dtop%3BstrokeWidth%3D1%3Bshape%3Dmxgraph.mockup.graphics.columnChart%3BstrokeColor%3Dnone%3BstrokeColor2%3Dnone%3BstrokeColor3%3D%23666666%3BfillColor2%3D%23008cff%3BfillColor3%3D%23dddddd%3B%22%20vertex%3D%221%22%20parent%3D%222%22%3E%3CmxGeometry%20x%3D%22520%22%20y%3D%22320%22%20width%3D%22400%22%20height%3D%22200%22%20as%3D%22geometry%22%2F%3E%3C%2FmxCell%3E%3CmxCell%20id%3D%227%22%20value%3D%22%22%20style%3D%22rounded%3D1%3BwhiteSpace%3Dwrap%3Bhtml%3D1%3B%22%20vertex%3D%221%22%20parent%3D%222%22%3E%3CmxGeometry%20x%3D%2230%22%20y%3D%22120%22%20width%3D%22210%22%20height%3D%22160%22%20as%3D%22geometry%22%2F%3E%3C%2FmxCell%3E%3C%2Froot%3E%3C%2FmxGraphModel%3E" link="&lt;mxGraphModel&gt;&lt;root&gt;&lt;mxCell id=&quot;0&quot;/&gt;&lt;mxCell id=&quot;1&quot; parent=&quot;0&quot;/&gt;&lt;mxCell id=&quot;2&quot; value=&quot;&amp;lt;span style=&amp;quot;color: rgba(0, 0, 0, 0); font-family: monospace; font-size: 0px; text-align: start; text-wrap: nowrap;&amp;quot;&amp;gt;%3CmxGraphModel%3E%3Croot%3E%3CmxCell%20id%3D%220%22%2F%3E%3CmxCell%20id%3D%221%22%20parent%3D%220%22%2F%3E%3CmxCell%20id%3D%222%22%20value%3D%22%22%20style%3D%22strokeWidth%3D1%3Bshadow%3D0%3Bdashed%3D0%3Balign%3Dcenter%3Bhtml%3D1%3Bshape%3Dmxgraph.mockup.containers.browserWindow%3BrSize%3D0%3BstrokeColor%3D%23666666%3BstrokeColor2%3D%23008cff%3BstrokeColor3%3D%23c4c4c4%3BmainText%3D%2C%3BrecursiveResize%3D0%3B%22%20vertex%3D%221%22%20parent%3D%221%22%3E%3CmxGeometry%20x%3D%22190%22%20y%3D%221120%22%20width%3D%22990%22%20height%3D%22620%22%20as%3D%22geometry%22%2F%3E%3C%2FmxCell%3E%3CmxCell%20id%3D%223%22%20value%3D%22HomePage%22%20style%3D%22strokeWidth%3D1%3Bshadow%3D0%3Bdashed%3D0%3Balign%3Dcenter%3Bhtml%3D1%3Bshape%3Dmxgraph.mockup.containers.anchor%3BfontSize%3D17%3BfontColor%3D%23666666%3Balign%3Dleft%3BwhiteSpace%3Dwrap%3B%22%20vertex%3D%221%22%20parent%3D%222%22%3E%3CmxGeometry%20x%3D%2260%22%20y%3D%2212%22%20width%3D%22110%22%20height%3D%2226%22%20as%3D%22geometry%22%2F%3E%3C%2FmxCell%3E%3CmxCell%20id%3D%224%22%20value%3D%22https%3A%2F%2Fwww.draw.io%2FHome%22%20style%3D%22strokeWidth%3D1%3Bshadow%3D0%3Bdashed%3D0%3Balign%3Dcenter%3Bhtml%3D1%3Bshape%3Dmxgraph.mockup.containers.anchor%3BrSize%3D0%3BfontSize%3D17%3BfontColor%3D%23666666%3Balign%3Dleft%3B%22%20vertex%3D%221%22%20parent%3D%222%22%3E%3CmxGeometry%20x%3D%22130%22%20y%3D%2260%22%20width%3D%22250%22%20height%3D%2226%22%20as%3D%22geometry%22%2F%3E%3C%2FmxCell%3E%3CmxCell%20id%3D%225%22%20value%3D%22%22%20style%3D%22verticalLabelPosition%3Dbottom%3Bshadow%3D0%3Bdashed%3D0%3Balign%3Dcenter%3Bhtml%3D1%3BverticalAlign%3Dtop%3BstrokeWidth%3D1%3Bshape%3Dmxgraph.mockup.graphics.pieChart%3BstrokeColor%3D%23008cff%3Bparts%3D10%2C20%2C35%3BpartColors%3D%23e0e0e0%2C%23d0d0d0%2C%23c0c0c0%2C%23b0b0b0%2C%23a0a0a0%3BstrokeWidth%3D2%3B%22%20vertex%3D%221%22%20parent%3D%222%22%3E%3CmxGeometry%20x%3D%22120%22%20y%3D%22320%22%20width%3D%22200%22%20height%3D%22200%22%20as%3D%22geometry%22%2F%3E%3C%2FmxCell%3E%3CmxCell%20id%3D%226%22%20value%3D%22%22%20style%3D%22verticalLabelPosition%3Dbottom%3Bshadow%3D0%3Bdashed%3D0%3Balign%3Dcenter%3Bhtml%3D1%3BverticalAlign%3Dtop%3BstrokeWidth%3D1%3Bshape%3Dmxgraph.mockup.graphics.columnChart%3BstrokeColor%3Dnone%3BstrokeColor2%3Dnone%3BstrokeColor3%3D%23666666%3BfillColor2%3D%23008cff%3BfillColor3%3D%23dddddd%3B%22%20vertex%3D%221%22%20parent%3D%222%22%3E%3CmxGeometry%20x%3D%22520%22%20y%3D%22320%22%20width%3D%22400%22%20height%3D%22200%22%20as%3D%22geometry%22%2F%3E%3C%2FmxCell%3E%3CmxCell%20id%3D%227%22%20value%3D%22%22%20style%3D%22rounded%3D1%3BwhiteSpace%3Dwrap%3Bhtml%3D1%3B%22%20vertex%3D%221%22%20parent%3D%222%22%3E%3CmxGeometry%20x%3D%2230%22%20y%3D%22120%22%20width%3D%22210%22%20height%3D%22160%22%20as%3D%22geometry%22%2F%3E%3C%2FmxCell%3E%3C%2Froot%3E%3C%2FmxGraphModel%3E" id="ORUjKMPv2vKjZehIr710-216">
          <mxCell style="rounded=1;whiteSpace=wrap;html=1;" vertex="1" parent="ORUjKMPv2vKjZehIr710-215">
            <mxGeometry y="27.85" width="124.37837837837839" height="108.60759493670885" as="geometry" />
          </mxCell>
        </UserObject>
        <mxCell id="ORUjKMPv2vKjZehIr710-217" value="" style="shape=mxgraph.mockup.markup.scratchOut;shadow=0;dashed=0;html=1;whiteSpace=wrap;strokeColor=#999999;strokeWidth=4;" vertex="1" parent="ORUjKMPv2vKjZehIr710-215">
          <mxGeometry x="10.0696138996139" y="53.98370253164557" width="104.24092664092663" height="56.340189873417714" as="geometry" />
        </mxCell>
        <mxCell id="ORUjKMPv2vKjZehIr710-218" value="" style="group" connectable="0" vertex="1" parent="1ajMpOEWdIn4cz9Z4kbx-380">
          <mxGeometry x="641.0270270270271" y="167.36898734177214" width="124.37837837837839" height="108.60759493670885" as="geometry" />
        </mxCell>
        <UserObject label="&lt;font style=&quot;font-size: 18px;&quot;&gt;Add Expense&lt;/font&gt;" link="&lt;mxGraphModel&gt;&lt;root&gt;&lt;mxCell id=&quot;0&quot;/&gt;&lt;mxCell id=&quot;1&quot; parent=&quot;0&quot;/&gt;&lt;mxCell id=&quot;2&quot; value=&quot;&amp;lt;span style=&amp;quot;color: rgba(0, 0, 0, 0); font-family: monospace; font-size: 0px; text-align: start; text-wrap: nowrap;&amp;quot;&amp;gt;%3CmxGraphModel%3E%3Croot%3E%3CmxCell%20id%3D%220%22%2F%3E%3CmxCell%20id%3D%221%22%20parent%3D%220%22%2F%3E%3CmxCell%20id%3D%222%22%20value%3D%22%22%20style%3D%22strokeWidth%3D1%3Bshadow%3D0%3Bdashed%3D0%3Balign%3Dcenter%3Bhtml%3D1%3Bshape%3Dmxgraph.mockup.containers.browserWindow%3BrSize%3D0%3BstrokeColor%3D%23666666%3BstrokeColor2%3D%23008cff%3BstrokeColor3%3D%23c4c4c4%3BmainText%3D%2C%3BrecursiveResize%3D0%3B%22%20vertex%3D%221%22%20parent%3D%221%22%3E%3CmxGeometry%20x%3D%22190%22%20y%3D%221120%22%20width%3D%22990%22%20height%3D%22620%22%20as%3D%22geometry%22%2F%3E%3C%2FmxCell%3E%3CmxCell%20id%3D%223%22%20value%3D%22HomePage%22%20style%3D%22strokeWidth%3D1%3Bshadow%3D0%3Bdashed%3D0%3Balign%3Dcenter%3Bhtml%3D1%3Bshape%3Dmxgraph.mockup.containers.anchor%3BfontSize%3D17%3BfontColor%3D%23666666%3Balign%3Dleft%3BwhiteSpace%3Dwrap%3B%22%20vertex%3D%221%22%20parent%3D%222%22%3E%3CmxGeometry%20x%3D%2260%22%20y%3D%2212%22%20width%3D%22110%22%20height%3D%2226%22%20as%3D%22geometry%22%2F%3E%3C%2FmxCell%3E%3CmxCell%20id%3D%224%22%20value%3D%22https%3A%2F%2Fwww.draw.io%2FHome%22%20style%3D%22strokeWidth%3D1%3Bshadow%3D0%3Bdashed%3D0%3Balign%3Dcenter%3Bhtml%3D1%3Bshape%3Dmxgraph.mockup.containers.anchor%3BrSize%3D0%3BfontSize%3D17%3BfontColor%3D%23666666%3Balign%3Dleft%3B%22%20vertex%3D%221%22%20parent%3D%222%22%3E%3CmxGeometry%20x%3D%22130%22%20y%3D%2260%22%20width%3D%22250%22%20height%3D%2226%22%20as%3D%22geometry%22%2F%3E%3C%2FmxCell%3E%3CmxCell%20id%3D%225%22%20value%3D%22%22%20style%3D%22verticalLabelPosition%3Dbottom%3Bshadow%3D0%3Bdashed%3D0%3Balign%3Dcenter%3Bhtml%3D1%3BverticalAlign%3Dtop%3BstrokeWidth%3D1%3Bshape%3Dmxgraph.mockup.graphics.pieChart%3BstrokeColor%3D%23008cff%3Bparts%3D10%2C20%2C35%3BpartColors%3D%23e0e0e0%2C%23d0d0d0%2C%23c0c0c0%2C%23b0b0b0%2C%23a0a0a0%3BstrokeWidth%3D2%3B%22%20vertex%3D%221%22%20parent%3D%222%22%3E%3CmxGeometry%20x%3D%22120%22%20y%3D%22320%22%20width%3D%22200%22%20height%3D%22200%22%20as%3D%22geometry%22%2F%3E%3C%2FmxCell%3E%3CmxCell%20id%3D%226%22%20value%3D%22%22%20style%3D%22verticalLabelPosition%3Dbottom%3Bshadow%3D0%3Bdashed%3D0%3Balign%3Dcenter%3Bhtml%3D1%3BverticalAlign%3Dtop%3BstrokeWidth%3D1%3Bshape%3Dmxgraph.mockup.graphics.columnChart%3BstrokeColor%3Dnone%3BstrokeColor2%3Dnone%3BstrokeColor3%3D%23666666%3BfillColor2%3D%23008cff%3BfillColor3%3D%23dddddd%3B%22%20vertex%3D%221%22%20parent%3D%222%22%3E%3CmxGeometry%20x%3D%22520%22%20y%3D%22320%22%20width%3D%22400%22%20height%3D%22200%22%20as%3D%22geometry%22%2F%3E%3C%2FmxCell%3E%3CmxCell%20id%3D%227%22%20value%3D%22%22%20style%3D%22rounded%3D1%3BwhiteSpace%3Dwrap%3Bhtml%3D1%3B%22%20vertex%3D%221%22%20parent%3D%222%22%3E%3CmxGeometry%20x%3D%2230%22%20y%3D%22120%22%20width%3D%22210%22%20height%3D%22160%22%20as%3D%22geometry%22%2F%3E%3C%2FmxCell%3E%3C%2Froot%3E%3C%2FmxGraphModel%3E" id="ORUjKMPv2vKjZehIr710-219">
          <mxCell style="rounded=1;whiteSpace=wrap;html=1;" vertex="1" parent="ORUjKMPv2vKjZehIr710-218">
            <mxGeometry width="124.37837837837839" height="108.60759493670885" as="geometry" />
          </mxCell>
        </UserObject>
        <mxCell id="ORUjKMPv2vKjZehIr710-573" value="&lt;span style=&quot;color: rgb(102, 102, 102); font-size: 17px; text-align: left; text-wrap: nowrap;&quot;&gt;https://www.ExpensesTracker.com/Home&lt;/span&gt;" style="text;html=1;align=center;verticalAlign=middle;whiteSpace=wrap;rounded=0;" vertex="1" parent="1ajMpOEWdIn4cz9Z4kbx-380">
          <mxGeometry x="256.62162162162156" y="59.397088607594924" width="60" height="30" as="geometry" />
        </mxCell>
        <UserObject label="&lt;mxGraphModel&gt;&lt;root&gt;&lt;mxCell id=&quot;0&quot;/&gt;&lt;mxCell id=&quot;1&quot; parent=&quot;0&quot;/&gt;&lt;mxCell id=&quot;2&quot; value=&quot;&amp;lt;span style=&amp;quot;color: rgba(0, 0, 0, 0); font-family: monospace; font-size: 0px; text-align: start; text-wrap: nowrap;&amp;quot;&amp;gt;%3CmxGraphModel%3E%3Croot%3E%3CmxCell%20id%3D%220%22%2F%3E%3CmxCell%20id%3D%221%22%20parent%3D%220%22%2F%3E%3CmxCell%20id%3D%222%22%20value%3D%22%22%20style%3D%22strokeWidth%3D1%3Bshadow%3D0%3Bdashed%3D0%3Balign%3Dcenter%3Bhtml%3D1%3Bshape%3Dmxgraph.mockup.containers.browserWindow%3BrSize%3D0%3BstrokeColor%3D%23666666%3BstrokeColor2%3D%23008cff%3BstrokeColor3%3D%23c4c4c4%3BmainText%3D%2C%3BrecursiveResize%3D0%3B%22%20vertex%3D%221%22%20parent%3D%221%22%3E%3CmxGeometry%20x%3D%22190%22%20y%3D%221120%22%20width%3D%22990%22%20height%3D%22620%22%20as%3D%22geometry%22%2F%3E%3C%2FmxCell%3E%3CmxCell%20id%3D%223%22%20value%3D%22HomePage%22%20style%3D%22strokeWidth%3D1%3Bshadow%3D0%3Bdashed%3D0%3Balign%3Dcenter%3Bhtml%3D1%3Bshape%3Dmxgraph.mockup.containers.anchor%3BfontSize%3D17%3BfontColor%3D%23666666%3Balign%3Dleft%3BwhiteSpace%3Dwrap%3B%22%20vertex%3D%221%22%20parent%3D%222%22%3E%3CmxGeometry%20x%3D%2260%22%20y%3D%2212%22%20width%3D%22110%22%20height%3D%2226%22%20as%3D%22geometry%22%2F%3E%3C%2FmxCell%3E%3CmxCell%20id%3D%224%22%20value%3D%22https%3A%2F%2Fwww.draw.io%2FHome%22%20style%3D%22strokeWidth%3D1%3Bshadow%3D0%3Bdashed%3D0%3Balign%3Dcenter%3Bhtml%3D1%3Bshape%3Dmxgraph.mockup.containers.anchor%3BrSize%3D0%3BfontSize%3D17%3BfontColor%3D%23666666%3Balign%3Dleft%3B%22%20vertex%3D%221%22%20parent%3D%222%22%3E%3CmxGeometry%20x%3D%22130%22%20y%3D%2260%22%20width%3D%22250%22%20height%3D%2226%22%20as%3D%22geometry%22%2F%3E%3C%2FmxCell%3E%3CmxCell%20id%3D%225%22%20value%3D%22%22%20style%3D%22verticalLabelPosition%3Dbottom%3Bshadow%3D0%3Bdashed%3D0%3Balign%3Dcenter%3Bhtml%3D1%3BverticalAlign%3Dtop%3BstrokeWidth%3D1%3Bshape%3Dmxgraph.mockup.graphics.pieChart%3BstrokeColor%3D%23008cff%3Bparts%3D10%2C20%2C35%3BpartColors%3D%23e0e0e0%2C%23d0d0d0%2C%23c0c0c0%2C%23b0b0b0%2C%23a0a0a0%3BstrokeWidth%3D2%3B%22%20vertex%3D%221%22%20parent%3D%222%22%3E%3CmxGeometry%20x%3D%22120%22%20y%3D%22320%22%20width%3D%22200%22%20height%3D%22200%22%20as%3D%22geometry%22%2F%3E%3C%2FmxCell%3E%3CmxCell%20id%3D%226%22%20value%3D%22%22%20style%3D%22verticalLabelPosition%3Dbottom%3Bshadow%3D0%3Bdashed%3D0%3Balign%3Dcenter%3Bhtml%3D1%3BverticalAlign%3Dtop%3BstrokeWidth%3D1%3Bshape%3Dmxgraph.mockup.graphics.columnChart%3BstrokeColor%3Dnone%3BstrokeColor2%3Dnone%3BstrokeColor3%3D%23666666%3BfillColor2%3D%23008cff%3BfillColor3%3D%23dddddd%3B%22%20vertex%3D%221%22%20parent%3D%222%22%3E%3CmxGeometry%20x%3D%22520%22%20y%3D%22320%22%20width%3D%22400%22%20height%3D%22200%22%20as%3D%22geometry%22%2F%3E%3C%2FmxCell%3E%3CmxCell%20id%3D%227%22%20value%3D%22%22%20style%3D%22rounded%3D1%3BwhiteSpace%3Dwrap%3Bhtml%3D1%3B%22%20vertex%3D%221%22%20parent%3D%222%22%3E%3CmxGeometry%20x%3D%2230%22%20y%3D%22120%22%20width%3D%22210%22%20height%3D%22160%22%20as%3D%22geometry%22%2F%3E%3C%2FmxCell%3E%3C%2Froot%3E%3C%2FmxGraphModel%3E" link="&lt;mxGraphModel&gt;&lt;root&gt;&lt;mxCell id=&quot;0&quot;/&gt;&lt;mxCell id=&quot;1&quot; parent=&quot;0&quot;/&gt;&lt;mxCell id=&quot;2&quot; value=&quot;&amp;lt;span style=&amp;quot;color: rgba(0, 0, 0, 0); font-family: monospace; font-size: 0px; text-align: start; text-wrap: nowrap;&amp;quot;&amp;gt;%3CmxGraphModel%3E%3Croot%3E%3CmxCell%20id%3D%220%22%2F%3E%3CmxCell%20id%3D%221%22%20parent%3D%220%22%2F%3E%3CmxCell%20id%3D%222%22%20value%3D%22%22%20style%3D%22strokeWidth%3D1%3Bshadow%3D0%3Bdashed%3D0%3Balign%3Dcenter%3Bhtml%3D1%3Bshape%3Dmxgraph.mockup.containers.browserWindow%3BrSize%3D0%3BstrokeColor%3D%23666666%3BstrokeColor2%3D%23008cff%3BstrokeColor3%3D%23c4c4c4%3BmainText%3D%2C%3BrecursiveResize%3D0%3B%22%20vertex%3D%221%22%20parent%3D%221%22%3E%3CmxGeometry%20x%3D%22190%22%20y%3D%221120%22%20width%3D%22990%22%20height%3D%22620%22%20as%3D%22geometry%22%2F%3E%3C%2FmxCell%3E%3CmxCell%20id%3D%223%22%20value%3D%22HomePage%22%20style%3D%22strokeWidth%3D1%3Bshadow%3D0%3Bdashed%3D0%3Balign%3Dcenter%3Bhtml%3D1%3Bshape%3Dmxgraph.mockup.containers.anchor%3BfontSize%3D17%3BfontColor%3D%23666666%3Balign%3Dleft%3BwhiteSpace%3Dwrap%3B%22%20vertex%3D%221%22%20parent%3D%222%22%3E%3CmxGeometry%20x%3D%2260%22%20y%3D%2212%22%20width%3D%22110%22%20height%3D%2226%22%20as%3D%22geometry%22%2F%3E%3C%2FmxCell%3E%3CmxCell%20id%3D%224%22%20value%3D%22https%3A%2F%2Fwww.draw.io%2FHome%22%20style%3D%22strokeWidth%3D1%3Bshadow%3D0%3Bdashed%3D0%3Balign%3Dcenter%3Bhtml%3D1%3Bshape%3Dmxgraph.mockup.containers.anchor%3BrSize%3D0%3BfontSize%3D17%3BfontColor%3D%23666666%3Balign%3Dleft%3B%22%20vertex%3D%221%22%20parent%3D%222%22%3E%3CmxGeometry%20x%3D%22130%22%20y%3D%2260%22%20width%3D%22250%22%20height%3D%2226%22%20as%3D%22geometry%22%2F%3E%3C%2FmxCell%3E%3CmxCell%20id%3D%225%22%20value%3D%22%22%20style%3D%22verticalLabelPosition%3Dbottom%3Bshadow%3D0%3Bdashed%3D0%3Balign%3Dcenter%3Bhtml%3D1%3BverticalAlign%3Dtop%3BstrokeWidth%3D1%3Bshape%3Dmxgraph.mockup.graphics.pieChart%3BstrokeColor%3D%23008cff%3Bparts%3D10%2C20%2C35%3BpartColors%3D%23e0e0e0%2C%23d0d0d0%2C%23c0c0c0%2C%23b0b0b0%2C%23a0a0a0%3BstrokeWidth%3D2%3B%22%20vertex%3D%221%22%20parent%3D%222%22%3E%3CmxGeometry%20x%3D%22120%22%20y%3D%22320%22%20width%3D%22200%22%20height%3D%22200%22%20as%3D%22geometry%22%2F%3E%3C%2FmxCell%3E%3CmxCell%20id%3D%226%22%20value%3D%22%22%20style%3D%22verticalLabelPosition%3Dbottom%3Bshadow%3D0%3Bdashed%3D0%3Balign%3Dcenter%3Bhtml%3D1%3BverticalAlign%3Dtop%3BstrokeWidth%3D1%3Bshape%3Dmxgraph.mockup.graphics.columnChart%3BstrokeColor%3Dnone%3BstrokeColor2%3Dnone%3BstrokeColor3%3D%23666666%3BfillColor2%3D%23008cff%3BfillColor3%3D%23dddddd%3B%22%20vertex%3D%221%22%20parent%3D%222%22%3E%3CmxGeometry%20x%3D%22520%22%20y%3D%22320%22%20width%3D%22400%22%20height%3D%22200%22%20as%3D%22geometry%22%2F%3E%3C%2FmxCell%3E%3CmxCell%20id%3D%227%22%20value%3D%22%22%20style%3D%22rounded%3D1%3BwhiteSpace%3Dwrap%3Bhtml%3D1%3B%22%20vertex%3D%221%22%20parent%3D%222%22%3E%3CmxGeometry%20x%3D%2230%22%20y%3D%22120%22%20width%3D%22210%22%20height%3D%22160%22%20as%3D%22geometry%22%2F%3E%3C%2FmxCell%3E%3C%2Froot%3E%3C%2FmxGraphModel%3E" id="ORUjKMPv2vKjZehIr710-213">
          <mxCell style="rounded=1;whiteSpace=wrap;html=1;" vertex="1" parent="1ajMpOEWdIn4cz9Z4kbx-380">
            <mxGeometry x="324.5239189189189" y="167.368987341772" width="124.37837837837839" height="108.60759493670885" as="geometry" />
          </mxCell>
        </UserObject>
        <mxCell id="ORUjKMPv2vKjZehIr710-763" value="" style="group" connectable="0" vertex="1" parent="1ajMpOEWdIn4cz9Z4kbx-380">
          <mxGeometry y="108.36" width="790" height="37.59" as="geometry" />
        </mxCell>
        <mxCell id="ORUjKMPv2vKjZehIr710-764" value="" style="verticalLabelPosition=bottom;shadow=0;dashed=0;align=center;html=1;verticalAlign=top;strokeWidth=1;shape=mxgraph.mockup.markup.line;strokeColor=#999999;" vertex="1" parent="ORUjKMPv2vKjZehIr710-763">
          <mxGeometry y="20.883333333333336" width="790" height="16.70666666666667" as="geometry" />
        </mxCell>
        <mxCell id="ORUjKMPv2vKjZehIr710-765" value="&lt;span style=&quot;color: rgba(0, 0, 0, 0); font-family: monospace; font-size: 0px; text-align: start; text-wrap: nowrap;&quot;&gt;%3CmxGraphModel%3E%3Croot%3E%3CmxCell%20id%3D%220%22%2F%3E%3CmxCell%20id%3D%221%22%20parent%3D%220%22%2F%3E%3CmxCell%20id%3D%222%22%20value%3D%22%22%20style%3D%22shape%3Dmxgraph.mockup.markup.scratchOut%3Bshadow%3D0%3Bdashed%3D0%3Bhtml%3D1%3BwhiteSpace%3Dwrap%3BstrokeColor%3D%23999999%3BstrokeWidth%3D4%3B%22%20vertex%3D%221%22%20parent%3D%221%22%3E%3CmxGeometry%20x%3D%221665%22%20y%3D%221300%22%20width%3D%22100%22%20height%3D%2260%22%20as%3D%22geometry%22%2F%3E%3C%2FmxCell%3E%3C%2Froot%3E%3C%2FmxGraphModel%3E&lt;/span&gt;" style="shape=mxgraph.mockup.markup.scratchOut;shadow=0;dashed=0;html=1;whiteSpace=wrap;strokeColor=#999999;strokeWidth=4;" vertex="1" parent="ORUjKMPv2vKjZehIr710-763">
          <mxGeometry x="16.989247311827956" y="4.176666666666668" width="33.97849462365591" height="16.70666666666667" as="geometry" />
        </mxCell>
        <mxCell id="ORUjKMPv2vKjZehIr710-766" value="Home&amp;nbsp;" style="text;html=1;align=center;verticalAlign=middle;whiteSpace=wrap;rounded=0;" vertex="1" parent="ORUjKMPv2vKjZehIr710-763">
          <mxGeometry x="292.2150537634409" width="50.967741935483865" height="25.06" as="geometry" />
        </mxCell>
        <mxCell id="ORUjKMPv2vKjZehIr710-767" value="Dashboard" style="text;html=1;align=center;verticalAlign=middle;whiteSpace=wrap;rounded=0;" vertex="1" parent="ORUjKMPv2vKjZehIr710-763">
          <mxGeometry x="369.51612903225805" width="50.967741935483865" height="25.06" as="geometry" />
        </mxCell>
        <mxCell id="ORUjKMPv2vKjZehIr710-768" value="Form" style="text;html=1;align=center;verticalAlign=middle;whiteSpace=wrap;rounded=0;" vertex="1" parent="ORUjKMPv2vKjZehIr710-763">
          <mxGeometry x="450.21505376344084" width="50.967741935483865" height="25.06" as="geometry" />
        </mxCell>
        <mxCell id="1ajMpOEWdIn4cz9Z4kbx-405" value="&lt;font style=&quot;font-size: 32px;&quot;&gt;Home Page&lt;/font&gt;" style="text;html=1;align=center;verticalAlign=middle;whiteSpace=wrap;rounded=0;" vertex="1" parent="1ajMpOEWdIn4cz9Z4kbx-406">
          <mxGeometry x="306.9594594594595" width="175.40540540540542" height="25.063291139240505" as="geometry" />
        </mxCell>
        <mxCell id="ORUjKMPv2vKjZehIr710-212" value="" style="group" connectable="0" vertex="1" parent="1ajMpOEWdIn4cz9Z4kbx-406">
          <mxGeometry x="326.8918918918919" y="150.37974683544303" width="124.37837837837839" height="108.60759493670885" as="geometry" />
        </mxCell>
        <mxCell id="ORUjKMPv2vKjZehIr710-214" value="" style="shape=mxgraph.mockup.markup.scratchOut;shadow=0;dashed=0;html=1;whiteSpace=wrap;strokeColor=#999999;strokeWidth=4;" vertex="1" parent="ORUjKMPv2vKjZehIr710-212">
          <mxGeometry x="7.6996138996139" y="76.57636075949367" width="104.24092664092663" height="56.340189873417714" as="geometry" />
        </mxCell>
        <mxCell id="ORUjKMPv2vKjZehIr710-7" value="" style="strokeWidth=1;shadow=0;dashed=0;align=center;html=1;shape=mxgraph.mockup.containers.browserWindow;rSize=0;strokeColor=#666666;strokeColor2=#008cff;strokeColor3=#c4c4c4;mainText=,;recursiveResize=0;" vertex="1" parent="ORUjKMPv2vKjZehIr710-236">
          <mxGeometry x="1618.5135135135135" y="718.4810126582279" width="741.4864864864866" height="517.9746835443038" as="geometry" />
        </mxCell>
        <mxCell id="ORUjKMPv2vKjZehIr710-8" value="Sign Up" style="strokeWidth=1;shadow=0;dashed=0;align=center;html=1;shape=mxgraph.mockup.containers.anchor;fontSize=17;fontColor=#666666;align=left;whiteSpace=wrap;" vertex="1" parent="ORUjKMPv2vKjZehIr710-7">
          <mxGeometry x="61.49" y="21.52" width="78.51" height="18.48" as="geometry" />
        </mxCell>
        <mxCell id="ORUjKMPv2vKjZehIr710-9" value="" style="strokeWidth=1;shadow=0;dashed=0;align=center;html=1;shape=mxgraph.mockup.containers.anchor;rSize=0;fontSize=17;fontColor=#666666;align=left;" vertex="1" parent="ORUjKMPv2vKjZehIr710-7">
          <mxGeometry x="103.65" y="50.13" width="376.35" height="21.72" as="geometry" />
        </mxCell>
        <mxCell id="ORUjKMPv2vKjZehIr710-103" value="" style="group" connectable="0" vertex="1" parent="ORUjKMPv2vKjZehIr710-7">
          <mxGeometry x="255.13513513513513" y="171.5208860759494" width="231.21621621621622" height="317.47" as="geometry" />
        </mxCell>
        <mxCell id="ORUjKMPv2vKjZehIr710-26" value="Password&amp;nbsp;&lt;span style=&quot;white-space: pre;&quot;&gt;&#x9;&lt;/span&gt;" style="rounded=1;arcSize=9;fillColor=#F7F8F9;align=left;spacingLeft=5;strokeColor=#DEE1E6;html=1;strokeWidth=2;fontColor=#596780;fontSize=12" vertex="1" parent="ORUjKMPv2vKjZehIr710-103">
          <mxGeometry y="192.15189873417725" width="231.21621621621622" height="27.56962025316456" as="geometry" />
        </mxCell>
        <mxCell id="ORUjKMPv2vKjZehIr710-25" value="Email Address&lt;span style=&quot;white-space: pre;&quot;&gt;&#x9;&lt;/span&gt;" style="rounded=1;arcSize=9;fillColor=#F7F8F9;align=left;spacingLeft=5;strokeColor=#DEE1E6;html=1;strokeWidth=2;fontColor=#596780;fontSize=12" vertex="1" parent="ORUjKMPv2vKjZehIr710-103">
          <mxGeometry y="158.7341772151899" width="231.21621621621622" height="27.56962025316456" as="geometry" />
        </mxCell>
        <mxCell id="ORUjKMPv2vKjZehIr710-24" value="Profile photo&lt;span style=&quot;white-space: pre;&quot;&gt;&#x9;&lt;/span&gt;" style="rounded=1;arcSize=9;fillColor=#F7F8F9;align=left;spacingLeft=5;strokeColor=#DEE1E6;html=1;strokeWidth=2;fontColor=#596780;fontSize=12" vertex="1" parent="ORUjKMPv2vKjZehIr710-103">
          <mxGeometry y="122.8101265822785" width="231.21621621621622" height="27.56962025316456" as="geometry" />
        </mxCell>
        <mxCell id="ORUjKMPv2vKjZehIr710-27" value="" style="shape=image;html=1;verticalAlign=top;verticalLabelPosition=bottom;labelBackgroundColor=#ffffff;imageAspect=0;aspect=fixed;image=https://cdn0.iconfinder.com/data/icons/user-interface-1-32/32/upload-photo-2-128.png" vertex="1" parent="ORUjKMPv2vKjZehIr710-103">
          <mxGeometry x="191.35135135135135" y="122.8101265822785" width="25.71711612548157" height="25.71711612548157" as="geometry" />
        </mxCell>
        <mxCell id="ORUjKMPv2vKjZehIr710-28" value="Confirm Password" style="rounded=1;arcSize=9;fillColor=#F7F8F9;align=left;spacingLeft=5;strokeColor=#DEE1E6;html=1;strokeWidth=2;fontColor=#596780;fontSize=12" vertex="1" parent="ORUjKMPv2vKjZehIr710-103">
          <mxGeometry y="225.5696202531646" width="231.21621621621622" height="27.56962025316456" as="geometry" />
        </mxCell>
        <mxCell id="ORUjKMPv2vKjZehIr710-29" value="Sign Up" style="rounded=1;fillColor=#0057D8;strokeColor=none;html=1;whiteSpace=wrap;fontColor=#ffffff;align=center;verticalAlign=middle;fontStyle=0;fontSize=12;sketch=0;" vertex="1" parent="ORUjKMPv2vKjZehIr710-103">
          <mxGeometry y="258.9873417721519" width="231.21621621621622" height="27.56962025316456" as="geometry" />
        </mxCell>
        <mxCell id="ORUjKMPv2vKjZehIr710-31" value="&lt;span style=&quot;color: rgba(0, 0, 0, 0); font-family: monospace; font-size: 0px; text-align: start; text-wrap: nowrap;&quot;&gt;%3CmxGraphModel%3E%3Croot%3E%3CmxCell%20id%3D%220%22%2F%3E%3CmxCell%20id%3D%221%22%20parent%3D%220%22%2F%3E%3CmxCell%20id%3D%222%22%20value%3D%22%22%20style%3D%22shape%3Dmxgraph.mockup.markup.scratchOut%3Bshadow%3D0%3Bdashed%3D0%3Bhtml%3D1%3BwhiteSpace%3Dwrap%3BstrokeColor%3D%23999999%3BstrokeWidth%3D4%3B%22%20vertex%3D%221%22%20parent%3D%221%22%3E%3CmxGeometry%20x%3D%221665%22%20y%3D%221300%22%20width%3D%22100%22%20height%3D%2260%22%20as%3D%22geometry%22%2F%3E%3C%2FmxCell%3E%3C%2Froot%3E%3C%2FmxGraphModel%3E&lt;/span&gt;" style="shape=mxgraph.mockup.markup.scratchOut;shadow=0;dashed=0;html=1;whiteSpace=wrap;strokeColor=#999999;strokeWidth=4;" vertex="1" parent="ORUjKMPv2vKjZehIr710-103">
          <mxGeometry x="75.74324324324324" width="79.72972972972973" height="50.12658227848102" as="geometry" />
        </mxCell>
        <mxCell id="ORUjKMPv2vKjZehIr710-43" value="Sign In" style="rounded=1;html=1;shadow=0;dashed=0;whiteSpace=wrap;fontSize=10;fillColor=#E6E6E6;align=center;strokeColor=#E6E6E6;fontColor=#333333;" vertex="1" parent="ORUjKMPv2vKjZehIr710-103">
          <mxGeometry x="19.135135135135137" y="58.48101265822776" width="84.11486486486487" height="14.10227848101266" as="geometry" />
        </mxCell>
        <mxCell id="ORUjKMPv2vKjZehIr710-44" value="Sign Up" style="rounded=1;html=1;shadow=0;dashed=0;whiteSpace=wrap;fontSize=10;fillColor=#E6E6E6;align=center;strokeColor=#E6E6E6;fontColor=#333333;" vertex="1" parent="ORUjKMPv2vKjZehIr710-103">
          <mxGeometry x="127.56756756756756" y="58.48101265822776" width="84.11486486486487" height="14.10227848101266" as="geometry" />
        </mxCell>
        <mxCell id="ORUjKMPv2vKjZehIr710-23" value="Username&amp;nbsp;&lt;span style=&quot;white-space: pre;&quot;&gt;&#x9;&lt;/span&gt;" style="rounded=1;arcSize=9;fillColor=#F7F8F9;align=left;spacingLeft=5;strokeColor=#DEE1E6;html=1;strokeWidth=2;fontColor=#596780;fontSize=12" vertex="1" parent="ORUjKMPv2vKjZehIr710-7">
          <mxGeometry x="255.13513513513513" y="261.5196202531646" width="231.21621621621622" height="27.56962025316456" as="geometry" />
        </mxCell>
        <mxCell id="ORUjKMPv2vKjZehIr710-572" value="&lt;span style=&quot;color: rgb(102, 102, 102); font-size: 17px; text-align: left; text-wrap: nowrap;&quot;&gt;https://www.ExpensesTracker.com/Signup&lt;/span&gt;" style="text;html=1;align=center;verticalAlign=middle;whiteSpace=wrap;rounded=0;" vertex="1" parent="ORUjKMPv2vKjZehIr710-7">
          <mxGeometry x="255.13648648648646" y="61.51898734177212" width="60" height="30" as="geometry" />
        </mxCell>
        <mxCell id="ORUjKMPv2vKjZehIr710-30" value="&lt;font color=&quot;#001eff&quot;&gt;Already have account&lt;/font&gt;" style="text;html=1;align=center;verticalAlign=middle;whiteSpace=wrap;rounded=0;" vertex="1" parent="ORUjKMPv2vKjZehIr710-7">
          <mxGeometry x="300.6451351351352" y="461.52088607594953" width="140.2" height="25.06" as="geometry" />
        </mxCell>
        <mxCell id="ORUjKMPv2vKjZehIr710-144" value="" style="strokeWidth=1;shadow=0;dashed=0;align=center;html=1;shape=mxgraph.mockup.containers.browserWindow;rSize=0;strokeColor=#666666;strokeColor2=#008cff;strokeColor3=#c4c4c4;mainText=,;recursiveResize=0;" vertex="1" parent="ORUjKMPv2vKjZehIr710-236">
          <mxGeometry y="718.4810126582279" width="741.4864864864866" height="517.9746835443038" as="geometry" />
        </mxCell>
        <mxCell id="ORUjKMPv2vKjZehIr710-145" value="Sign in" style="strokeWidth=1;shadow=0;dashed=0;align=center;html=1;shape=mxgraph.mockup.containers.anchor;fontSize=17;fontColor=#666666;align=left;whiteSpace=wrap;" vertex="1" parent="ORUjKMPv2vKjZehIr710-144">
          <mxGeometry x="60" y="21.52" width="80" height="18.48" as="geometry" />
        </mxCell>
        <mxCell id="ORUjKMPv2vKjZehIr710-146" value="" style="strokeWidth=1;shadow=0;dashed=0;align=center;html=1;shape=mxgraph.mockup.containers.anchor;rSize=0;fontSize=17;fontColor=#666666;align=left;" vertex="1" parent="ORUjKMPv2vKjZehIr710-144">
          <mxGeometry x="103.64864864864865" y="50.12658227848102" width="199.32432432432432" height="21.721518987341774" as="geometry" />
        </mxCell>
        <mxCell id="ORUjKMPv2vKjZehIr710-147" value="" style="group" connectable="0" vertex="1" parent="ORUjKMPv2vKjZehIr710-144">
          <mxGeometry x="255.13513513513513" y="149.1108860759494" width="231.21621621621622" height="317.4683544303798" as="geometry" />
        </mxCell>
        <mxCell id="ORUjKMPv2vKjZehIr710-155" value="&lt;span style=&quot;color: rgba(0, 0, 0, 0); font-family: monospace; font-size: 0px; text-align: start; text-wrap: nowrap;&quot;&gt;%3CmxGraphModel%3E%3Croot%3E%3CmxCell%20id%3D%220%22%2F%3E%3CmxCell%20id%3D%221%22%20parent%3D%220%22%2F%3E%3CmxCell%20id%3D%222%22%20value%3D%22%22%20style%3D%22shape%3Dmxgraph.mockup.markup.scratchOut%3Bshadow%3D0%3Bdashed%3D0%3Bhtml%3D1%3BwhiteSpace%3Dwrap%3BstrokeColor%3D%23999999%3BstrokeWidth%3D4%3B%22%20vertex%3D%221%22%20parent%3D%221%22%3E%3CmxGeometry%20x%3D%221665%22%20y%3D%221300%22%20width%3D%22100%22%20height%3D%2260%22%20as%3D%22geometry%22%2F%3E%3C%2FmxCell%3E%3C%2Froot%3E%3C%2FmxGraphModel%3E&lt;/span&gt;" style="shape=mxgraph.mockup.markup.scratchOut;shadow=0;dashed=0;html=1;whiteSpace=wrap;strokeColor=#999999;strokeWidth=4;" vertex="1" parent="ORUjKMPv2vKjZehIr710-147">
          <mxGeometry x="75.74324324324324" y="32.41" width="79.72972972972973" height="50.12658227848102" as="geometry" />
        </mxCell>
        <mxCell id="ORUjKMPv2vKjZehIr710-157" value="Sign Up" style="rounded=1;html=1;shadow=0;dashed=0;whiteSpace=wrap;fontSize=10;fillColor=#E6E6E6;align=center;strokeColor=#E6E6E6;fontColor=#333333;" vertex="1" parent="ORUjKMPv2vKjZehIr710-147">
          <mxGeometry x="124.86756756756756" y="92.41101265822776" width="84.11486486486487" height="14.10227848101266" as="geometry" />
        </mxCell>
        <mxCell id="ORUjKMPv2vKjZehIr710-158" value="Username&amp;nbsp;&lt;span style=&quot;white-space: pre;&quot;&gt;&#x9;&lt;/span&gt;" style="rounded=1;arcSize=9;fillColor=#F7F8F9;align=left;spacingLeft=5;strokeColor=#DEE1E6;html=1;strokeWidth=2;fontColor=#596780;fontSize=12" vertex="1" parent="ORUjKMPv2vKjZehIr710-147">
          <mxGeometry y="116.96202531645571" width="231.21621621621622" height="27.56962025316456" as="geometry" />
        </mxCell>
        <mxCell id="ORUjKMPv2vKjZehIr710-154" value="&lt;font color=&quot;#001eff&quot;&gt;Already have account&lt;/font&gt;" style="text;html=1;align=center;verticalAlign=middle;whiteSpace=wrap;rounded=0;" vertex="1" parent="ORUjKMPv2vKjZehIr710-147">
          <mxGeometry x="3.074864864864935" y="222.40911392405064" width="225.07" height="25.06" as="geometry" />
        </mxCell>
        <mxCell id="ORUjKMPv2vKjZehIr710-166" value="" style="group" connectable="0" vertex="1" parent="ORUjKMPv2vKjZehIr710-144">
          <mxGeometry y="111.51594936708862" width="741.4864864864866" height="37.594936708860764" as="geometry" />
        </mxCell>
        <mxCell id="ORUjKMPv2vKjZehIr710-159" value="" style="verticalLabelPosition=bottom;shadow=0;dashed=0;align=center;html=1;verticalAlign=top;strokeWidth=1;shape=mxgraph.mockup.markup.line;strokeColor=#999999;" vertex="1" parent="ORUjKMPv2vKjZehIr710-166">
          <mxGeometry y="20.886075949367093" width="741.4864864864866" height="16.708860759493675" as="geometry" />
        </mxCell>
        <mxCell id="ORUjKMPv2vKjZehIr710-160" value="&lt;span style=&quot;color: rgba(0, 0, 0, 0); font-family: monospace; font-size: 0px; text-align: start; text-wrap: nowrap;&quot;&gt;%3CmxGraphModel%3E%3Croot%3E%3CmxCell%20id%3D%220%22%2F%3E%3CmxCell%20id%3D%221%22%20parent%3D%220%22%2F%3E%3CmxCell%20id%3D%222%22%20value%3D%22%22%20style%3D%22shape%3Dmxgraph.mockup.markup.scratchOut%3Bshadow%3D0%3Bdashed%3D0%3Bhtml%3D1%3BwhiteSpace%3Dwrap%3BstrokeColor%3D%23999999%3BstrokeWidth%3D4%3B%22%20vertex%3D%221%22%20parent%3D%221%22%3E%3CmxGeometry%20x%3D%221665%22%20y%3D%221300%22%20width%3D%22100%22%20height%3D%2260%22%20as%3D%22geometry%22%2F%3E%3C%2FmxCell%3E%3C%2Froot%3E%3C%2FmxGraphModel%3E&lt;/span&gt;" style="shape=mxgraph.mockup.markup.scratchOut;shadow=0;dashed=0;html=1;whiteSpace=wrap;strokeColor=#999999;strokeWidth=4;" vertex="1" parent="ORUjKMPv2vKjZehIr710-166">
          <mxGeometry x="15.945945945945946" y="4.177215189873419" width="31.89189189189189" height="16.708860759493675" as="geometry" />
        </mxCell>
        <mxCell id="ORUjKMPv2vKjZehIr710-161" value="Home&amp;nbsp;" style="text;html=1;align=center;verticalAlign=middle;whiteSpace=wrap;rounded=0;" vertex="1" parent="ORUjKMPv2vKjZehIr710-166">
          <mxGeometry x="274.2702702702703" width="47.83783783783784" height="25.06329113924051" as="geometry" />
        </mxCell>
        <mxCell id="ORUjKMPv2vKjZehIr710-162" value="Dashboard" style="text;html=1;align=center;verticalAlign=middle;whiteSpace=wrap;rounded=0;" vertex="1" parent="ORUjKMPv2vKjZehIr710-166">
          <mxGeometry x="346.8243243243244" width="47.83783783783784" height="25.06329113924051" as="geometry" />
        </mxCell>
        <mxCell id="ORUjKMPv2vKjZehIr710-163" value="Form" style="text;html=1;align=center;verticalAlign=middle;whiteSpace=wrap;rounded=0;" vertex="1" parent="ORUjKMPv2vKjZehIr710-166">
          <mxGeometry x="422.5675675675676" width="47.83783783783784" height="25.06329113924051" as="geometry" />
        </mxCell>
        <mxCell id="ORUjKMPv2vKjZehIr710-148" value="Password&amp;nbsp;&lt;span style=&quot;white-space: pre;&quot;&gt;&#x9;&lt;/span&gt;" style="rounded=1;arcSize=9;fillColor=#F7F8F9;align=left;spacingLeft=5;strokeColor=#DEE1E6;html=1;strokeWidth=2;fontColor=#596780;fontSize=12" vertex="1" parent="ORUjKMPv2vKjZehIr710-144">
          <mxGeometry x="255.13513513513513" y="301.52063291139245" width="231.21621621621622" height="27.56962025316456" as="geometry" />
        </mxCell>
        <mxCell id="ORUjKMPv2vKjZehIr710-153" value="Sign In" style="rounded=1;fillColor=#0057D8;strokeColor=none;html=1;whiteSpace=wrap;fontColor=#ffffff;align=center;verticalAlign=middle;fontStyle=0;fontSize=12;sketch=0;" vertex="1" parent="ORUjKMPv2vKjZehIr710-144">
          <mxGeometry x="255.13513513513513" y="341.5183544303798" width="231.21621621621622" height="27.56962025316456" as="geometry" />
        </mxCell>
        <UserObject label="&lt;br&gt;&lt;span style=&quot;color: rgb(102, 102, 102); font-family: Helvetica; font-size: 17px; font-style: normal; font-variant-ligatures: normal; font-variant-caps: normal; font-weight: 400; letter-spacing: normal; orphans: 2; text-align: left; text-indent: 0px; text-transform: none; widows: 2; word-spacing: 0px; -webkit-text-stroke-width: 0px; white-space: nowrap; background-color: rgb(251, 251, 251); text-decoration-thickness: initial; text-decoration-style: initial; text-decoration-color: initial; display: inline !important; float: none;&quot;&gt;https://www.ExpensesTracker.com/Signin&lt;/span&gt;" link="&#xa;&lt;span style=&quot;color: rgb(102, 102, 102); font-family: Helvetica; font-size: 17px; font-style: normal; font-variant-ligatures: normal; font-variant-caps: normal; font-weight: 400; letter-spacing: normal; orphans: 2; text-align: left; text-indent: 0px; text-transform: none; widows: 2; word-spacing: 0px; -webkit-text-stroke-width: 0px; white-space: nowrap; background-color: rgb(251, 251, 251); text-decoration-thickness: initial; text-decoration-style: initial; text-decoration-color: initial; display: inline !important; float: none;&quot;&gt;https://www.ExpensesTracker.com/Home&lt;/span&gt;&#xa;&#xa;" id="ORUjKMPv2vKjZehIr710-741">
          <mxCell style="text;html=1;align=center;verticalAlign=middle;whiteSpace=wrap;rounded=0;" vertex="1" parent="ORUjKMPv2vKjZehIr710-144">
            <mxGeometry x="254.93000000000006" y="50.12898734177206" width="60" height="30" as="geometry" />
          </mxCell>
        </UserObject>
        <mxCell id="ORUjKMPv2vKjZehIr710-156" value="Sign In" style="rounded=1;html=1;shadow=0;dashed=0;whiteSpace=wrap;fontSize=10;fillColor=#E6E6E6;align=center;strokeColor=#E6E6E6;fontColor=#333333;" vertex="1" parent="ORUjKMPv2vKjZehIr710-144">
          <mxGeometry x="272.0002702702702" y="241.5218987341771" width="84.11486486486487" height="14.10227848101266" as="geometry" />
        </mxCell>
        <mxCell id="ORUjKMPv2vKjZehIr710-165" style="edgeStyle=orthogonalEdgeStyle;rounded=0;orthogonalLoop=1;jettySize=auto;html=1;exitX=0.5;exitY=0;exitDx=0;exitDy=0;entryX=0.498;entryY=1.002;entryDx=0;entryDy=0;entryPerimeter=0;" edge="1" parent="ORUjKMPv2vKjZehIr710-236" source="ORUjKMPv2vKjZehIr710-162" target="1ajMpOEWdIn4cz9Z4kbx-1">
          <mxGeometry relative="1" as="geometry" />
        </mxCell>
        <mxCell id="ORUjKMPv2vKjZehIr710-201" style="edgeStyle=orthogonalEdgeStyle;rounded=0;orthogonalLoop=1;jettySize=auto;html=1;entryX=-0.004;entryY=0.636;entryDx=0;entryDy=0;entryPerimeter=0;" edge="1" parent="ORUjKMPv2vKjZehIr710-236" source="ORUjKMPv2vKjZehIr710-153" target="1ajMpOEWdIn4cz9Z4kbx-380">
          <mxGeometry relative="1" as="geometry" />
        </mxCell>
        <mxCell id="ORUjKMPv2vKjZehIr710-206" style="edgeStyle=orthogonalEdgeStyle;rounded=0;orthogonalLoop=1;jettySize=auto;html=1;exitX=0;exitY=0.75;exitDx=0;exitDy=0;entryX=1.001;entryY=0.584;entryDx=0;entryDy=0;entryPerimeter=0;" edge="1" parent="ORUjKMPv2vKjZehIr710-236" source="ORUjKMPv2vKjZehIr710-29" target="1ajMpOEWdIn4cz9Z4kbx-380">
          <mxGeometry relative="1" as="geometry" />
        </mxCell>
        <mxCell id="ORUjKMPv2vKjZehIr710-209" value="" style="group" connectable="0" vertex="1" parent="ORUjKMPv2vKjZehIr710-236">
          <mxGeometry x="940.8108108108108" y="880.0018987341773" width="124.37837837837839" height="108.60759493670886" as="geometry" />
        </mxCell>
        <UserObject label="&lt;mxGraphModel&gt;&lt;root&gt;&lt;mxCell id=&quot;0&quot;/&gt;&lt;mxCell id=&quot;1&quot; parent=&quot;0&quot;/&gt;&lt;mxCell id=&quot;2&quot; value=&quot;&amp;lt;span style=&amp;quot;color: rgba(0, 0, 0, 0); font-family: monospace; font-size: 0px; text-align: start; text-wrap: nowrap;&amp;quot;&amp;gt;%3CmxGraphModel%3E%3Croot%3E%3CmxCell%20id%3D%220%22%2F%3E%3CmxCell%20id%3D%221%22%20parent%3D%220%22%2F%3E%3CmxCell%20id%3D%222%22%20value%3D%22%22%20style%3D%22strokeWidth%3D1%3Bshadow%3D0%3Bdashed%3D0%3Balign%3Dcenter%3Bhtml%3D1%3Bshape%3Dmxgraph.mockup.containers.browserWindow%3BrSize%3D0%3BstrokeColor%3D%23666666%3BstrokeColor2%3D%23008cff%3BstrokeColor3%3D%23c4c4c4%3BmainText%3D%2C%3BrecursiveResize%3D0%3B%22%20vertex%3D%221%22%20parent%3D%221%22%3E%3CmxGeometry%20x%3D%22190%22%20y%3D%221120%22%20width%3D%22990%22%20height%3D%22620%22%20as%3D%22geometry%22%2F%3E%3C%2FmxCell%3E%3CmxCell%20id%3D%223%22%20value%3D%22HomePage%22%20style%3D%22strokeWidth%3D1%3Bshadow%3D0%3Bdashed%3D0%3Balign%3Dcenter%3Bhtml%3D1%3Bshape%3Dmxgraph.mockup.containers.anchor%3BfontSize%3D17%3BfontColor%3D%23666666%3Balign%3Dleft%3BwhiteSpace%3Dwrap%3B%22%20vertex%3D%221%22%20parent%3D%222%22%3E%3CmxGeometry%20x%3D%2260%22%20y%3D%2212%22%20width%3D%22110%22%20height%3D%2226%22%20as%3D%22geometry%22%2F%3E%3C%2FmxCell%3E%3CmxCell%20id%3D%224%22%20value%3D%22https%3A%2F%2Fwww.draw.io%2FHome%22%20style%3D%22strokeWidth%3D1%3Bshadow%3D0%3Bdashed%3D0%3Balign%3Dcenter%3Bhtml%3D1%3Bshape%3Dmxgraph.mockup.containers.anchor%3BrSize%3D0%3BfontSize%3D17%3BfontColor%3D%23666666%3Balign%3Dleft%3B%22%20vertex%3D%221%22%20parent%3D%222%22%3E%3CmxGeometry%20x%3D%22130%22%20y%3D%2260%22%20width%3D%22250%22%20height%3D%2226%22%20as%3D%22geometry%22%2F%3E%3C%2FmxCell%3E%3CmxCell%20id%3D%225%22%20value%3D%22%22%20style%3D%22verticalLabelPosition%3Dbottom%3Bshadow%3D0%3Bdashed%3D0%3Balign%3Dcenter%3Bhtml%3D1%3BverticalAlign%3Dtop%3BstrokeWidth%3D1%3Bshape%3Dmxgraph.mockup.graphics.pieChart%3BstrokeColor%3D%23008cff%3Bparts%3D10%2C20%2C35%3BpartColors%3D%23e0e0e0%2C%23d0d0d0%2C%23c0c0c0%2C%23b0b0b0%2C%23a0a0a0%3BstrokeWidth%3D2%3B%22%20vertex%3D%221%22%20parent%3D%222%22%3E%3CmxGeometry%20x%3D%22120%22%20y%3D%22320%22%20width%3D%22200%22%20height%3D%22200%22%20as%3D%22geometry%22%2F%3E%3C%2FmxCell%3E%3CmxCell%20id%3D%226%22%20value%3D%22%22%20style%3D%22verticalLabelPosition%3Dbottom%3Bshadow%3D0%3Bdashed%3D0%3Balign%3Dcenter%3Bhtml%3D1%3BverticalAlign%3Dtop%3BstrokeWidth%3D1%3Bshape%3Dmxgraph.mockup.graphics.columnChart%3BstrokeColor%3Dnone%3BstrokeColor2%3Dnone%3BstrokeColor3%3D%23666666%3BfillColor2%3D%23008cff%3BfillColor3%3D%23dddddd%3B%22%20vertex%3D%221%22%20parent%3D%222%22%3E%3CmxGeometry%20x%3D%22520%22%20y%3D%22320%22%20width%3D%22400%22%20height%3D%22200%22%20as%3D%22geometry%22%2F%3E%3C%2FmxCell%3E%3CmxCell%20id%3D%227%22%20value%3D%22%22%20style%3D%22rounded%3D1%3BwhiteSpace%3Dwrap%3Bhtml%3D1%3B%22%20vertex%3D%221%22%20parent%3D%222%22%3E%3CmxGeometry%20x%3D%2230%22%20y%3D%22120%22%20width%3D%22210%22%20height%3D%22160%22%20as%3D%22geometry%22%2F%3E%3C%2FmxCell%3E%3C%2Froot%3E%3C%2FmxGraphModel%3E" link="&lt;mxGraphModel&gt;&lt;root&gt;&lt;mxCell id=&quot;0&quot;/&gt;&lt;mxCell id=&quot;1&quot; parent=&quot;0&quot;/&gt;&lt;mxCell id=&quot;2&quot; value=&quot;&amp;lt;span style=&amp;quot;color: rgba(0, 0, 0, 0); font-family: monospace; font-size: 0px; text-align: start; text-wrap: nowrap;&amp;quot;&amp;gt;%3CmxGraphModel%3E%3Croot%3E%3CmxCell%20id%3D%220%22%2F%3E%3CmxCell%20id%3D%221%22%20parent%3D%220%22%2F%3E%3CmxCell%20id%3D%222%22%20value%3D%22%22%20style%3D%22strokeWidth%3D1%3Bshadow%3D0%3Bdashed%3D0%3Balign%3Dcenter%3Bhtml%3D1%3Bshape%3Dmxgraph.mockup.containers.browserWindow%3BrSize%3D0%3BstrokeColor%3D%23666666%3BstrokeColor2%3D%23008cff%3BstrokeColor3%3D%23c4c4c4%3BmainText%3D%2C%3BrecursiveResize%3D0%3B%22%20vertex%3D%221%22%20parent%3D%221%22%3E%3CmxGeometry%20x%3D%22190%22%20y%3D%221120%22%20width%3D%22990%22%20height%3D%22620%22%20as%3D%22geometry%22%2F%3E%3C%2FmxCell%3E%3CmxCell%20id%3D%223%22%20value%3D%22HomePage%22%20style%3D%22strokeWidth%3D1%3Bshadow%3D0%3Bdashed%3D0%3Balign%3Dcenter%3Bhtml%3D1%3Bshape%3Dmxgraph.mockup.containers.anchor%3BfontSize%3D17%3BfontColor%3D%23666666%3Balign%3Dleft%3BwhiteSpace%3Dwrap%3B%22%20vertex%3D%221%22%20parent%3D%222%22%3E%3CmxGeometry%20x%3D%2260%22%20y%3D%2212%22%20width%3D%22110%22%20height%3D%2226%22%20as%3D%22geometry%22%2F%3E%3C%2FmxCell%3E%3CmxCell%20id%3D%224%22%20value%3D%22https%3A%2F%2Fwww.draw.io%2FHome%22%20style%3D%22strokeWidth%3D1%3Bshadow%3D0%3Bdashed%3D0%3Balign%3Dcenter%3Bhtml%3D1%3Bshape%3Dmxgraph.mockup.containers.anchor%3BrSize%3D0%3BfontSize%3D17%3BfontColor%3D%23666666%3Balign%3Dleft%3B%22%20vertex%3D%221%22%20parent%3D%222%22%3E%3CmxGeometry%20x%3D%22130%22%20y%3D%2260%22%20width%3D%22250%22%20height%3D%2226%22%20as%3D%22geometry%22%2F%3E%3C%2FmxCell%3E%3CmxCell%20id%3D%225%22%20value%3D%22%22%20style%3D%22verticalLabelPosition%3Dbottom%3Bshadow%3D0%3Bdashed%3D0%3Balign%3Dcenter%3Bhtml%3D1%3BverticalAlign%3Dtop%3BstrokeWidth%3D1%3Bshape%3Dmxgraph.mockup.graphics.pieChart%3BstrokeColor%3D%23008cff%3Bparts%3D10%2C20%2C35%3BpartColors%3D%23e0e0e0%2C%23d0d0d0%2C%23c0c0c0%2C%23b0b0b0%2C%23a0a0a0%3BstrokeWidth%3D2%3B%22%20vertex%3D%221%22%20parent%3D%222%22%3E%3CmxGeometry%20x%3D%22120%22%20y%3D%22320%22%20width%3D%22200%22%20height%3D%22200%22%20as%3D%22geometry%22%2F%3E%3C%2FmxCell%3E%3CmxCell%20id%3D%226%22%20value%3D%22%22%20style%3D%22verticalLabelPosition%3Dbottom%3Bshadow%3D0%3Bdashed%3D0%3Balign%3Dcenter%3Bhtml%3D1%3BverticalAlign%3Dtop%3BstrokeWidth%3D1%3Bshape%3Dmxgraph.mockup.graphics.columnChart%3BstrokeColor%3Dnone%3BstrokeColor2%3Dnone%3BstrokeColor3%3D%23666666%3BfillColor2%3D%23008cff%3BfillColor3%3D%23dddddd%3B%22%20vertex%3D%221%22%20parent%3D%222%22%3E%3CmxGeometry%20x%3D%22520%22%20y%3D%22320%22%20width%3D%22400%22%20height%3D%22200%22%20as%3D%22geometry%22%2F%3E%3C%2FmxCell%3E%3CmxCell%20id%3D%227%22%20value%3D%22%22%20style%3D%22rounded%3D1%3BwhiteSpace%3Dwrap%3Bhtml%3D1%3B%22%20vertex%3D%221%22%20parent%3D%222%22%3E%3CmxGeometry%20x%3D%2230%22%20y%3D%22120%22%20width%3D%22210%22%20height%3D%22160%22%20as%3D%22geometry%22%2F%3E%3C%2FmxCell%3E%3C%2Froot%3E%3C%2FmxGraphModel%3E" id="ORUjKMPv2vKjZehIr710-210">
          <mxCell style="rounded=1;whiteSpace=wrap;html=1;" vertex="1" parent="ORUjKMPv2vKjZehIr710-209">
            <mxGeometry width="124.37837837837839" height="108.60759493670886" as="geometry" />
          </mxCell>
        </UserObject>
        <mxCell id="ORUjKMPv2vKjZehIr710-211" value="" style="shape=mxgraph.mockup.markup.scratchOut;shadow=0;dashed=0;html=1;whiteSpace=wrap;strokeColor=#999999;strokeWidth=4;" vertex="1" parent="ORUjKMPv2vKjZehIr710-209">
          <mxGeometry x="7.6996138996139" y="26.13370253164557" width="104.24092664092663" height="56.34018987341772" as="geometry" />
        </mxCell>
        <mxCell id="ORUjKMPv2vKjZehIr710-221" style="edgeStyle=orthogonalEdgeStyle;rounded=0;orthogonalLoop=1;jettySize=auto;html=1;entryX=0.437;entryY=1.004;entryDx=0;entryDy=0;entryPerimeter=0;" edge="1" parent="ORUjKMPv2vKjZehIr710-236" source="ORUjKMPv2vKjZehIr710-219" target="1ajMpOEWdIn4cz9Z4kbx-151">
          <mxGeometry relative="1" as="geometry" />
        </mxCell>
        <mxCell id="ORUjKMPv2vKjZehIr710-235" style="edgeStyle=orthogonalEdgeStyle;rounded=0;orthogonalLoop=1;jettySize=auto;html=1;entryX=1.004;entryY=0.418;entryDx=0;entryDy=0;entryPerimeter=0;exitX=0.5;exitY=0;exitDx=0;exitDy=0;" edge="1" parent="ORUjKMPv2vKjZehIr710-236" source="ORUjKMPv2vKjZehIr710-767" target="1ajMpOEWdIn4cz9Z4kbx-1">
          <mxGeometry relative="1" as="geometry">
            <mxPoint x="1168.0666666666666" y="802.0253164556962" as="sourcePoint" />
            <Array as="points">
              <mxPoint x="1168" y="286" />
            </Array>
          </mxGeometry>
        </mxCell>
        <mxCell id="ORUjKMPv2vKjZehIr710-238" value="&lt;font style=&quot;font-size: 32px;&quot;&gt;Sign Up Page&lt;/font&gt;" style="text;html=1;align=center;verticalAlign=middle;whiteSpace=wrap;rounded=0;" vertex="1" parent="ORUjKMPv2vKjZehIr710-236">
          <mxGeometry x="1883" y="676.71" width="275.74" height="30" as="geometry" />
        </mxCell>
        <mxCell id="ORUjKMPv2vKjZehIr710-239" value="&lt;font style=&quot;font-size: 32px;&quot;&gt;Sign In Page&lt;/font&gt;" style="text;html=1;align=center;verticalAlign=middle;whiteSpace=wrap;rounded=0;" vertex="1" parent="ORUjKMPv2vKjZehIr710-236">
          <mxGeometry x="260.74" y="676.71" width="220" height="30" as="geometry" />
        </mxCell>
        <mxCell id="ORUjKMPv2vKjZehIr710-800" style="edgeStyle=orthogonalEdgeStyle;rounded=0;orthogonalLoop=1;jettySize=auto;html=1;exitX=0.5;exitY=0;exitDx=0;exitDy=0;entryX=0.591;entryY=0.014;entryDx=0;entryDy=0;entryPerimeter=0;" edge="1" parent="ORUjKMPv2vKjZehIr710-236" source="ORUjKMPv2vKjZehIr710-797" target="1ajMpOEWdIn4cz9Z4kbx-380">
          <mxGeometry relative="1" as="geometry" />
        </mxCell>
        <mxCell id="ORUjKMPv2vKjZehIr710-801" style="edgeStyle=orthogonalEdgeStyle;rounded=0;orthogonalLoop=1;jettySize=auto;html=1;entryX=0.003;entryY=0.605;entryDx=0;entryDy=0;entryPerimeter=0;" edge="1" parent="ORUjKMPv2vKjZehIr710-236" source="ORUjKMPv2vKjZehIr710-799" target="1ajMpOEWdIn4cz9Z4kbx-151">
          <mxGeometry relative="1" as="geometry" />
        </mxCell>
        <mxCell id="ORUjKMPv2vKjZehIr710-834" style="edgeStyle=orthogonalEdgeStyle;rounded=0;orthogonalLoop=1;jettySize=auto;html=1;entryX=0.237;entryY=0.999;entryDx=0;entryDy=0;entryPerimeter=0;" edge="1" parent="ORUjKMPv2vKjZehIr710-236" source="ORUjKMPv2vKjZehIr710-768" target="1ajMpOEWdIn4cz9Z4kbx-151">
          <mxGeometry relative="1" as="geometry" />
        </mxCell>
        <mxCell id="ORUjKMPv2vKjZehIr710-848" style="edgeStyle=orthogonalEdgeStyle;rounded=0;orthogonalLoop=1;jettySize=auto;html=1;entryX=0.476;entryY=1.009;entryDx=0;entryDy=0;entryPerimeter=0;exitX=0.5;exitY=1;exitDx=0;exitDy=0;" edge="1" parent="ORUjKMPv2vKjZehIr710-236" source="ORUjKMPv2vKjZehIr710-30" target="ORUjKMPv2vKjZehIr710-144">
          <mxGeometry relative="1" as="geometry">
            <Array as="points">
              <mxPoint x="1989" y="1300" />
              <mxPoint x="353" y="1300" />
            </Array>
          </mxGeometry>
        </mxCell>
        <mxCell id="ORUjKMPv2vKjZehIr710-828" value="" style="group" connectable="0" vertex="1" parent="WIyWlLk6GJQsqaUBKTNV-1">
          <mxGeometry x="850" y="1139.9969620253164" width="741.4864864864866" height="37.594936708860764" as="geometry" />
        </mxCell>
        <mxCell id="ORUjKMPv2vKjZehIr710-829" value="" style="verticalLabelPosition=bottom;shadow=0;dashed=0;align=center;html=1;verticalAlign=top;strokeWidth=1;shape=mxgraph.mockup.markup.line;strokeColor=#999999;" vertex="1" parent="ORUjKMPv2vKjZehIr710-828">
          <mxGeometry y="20.886075949367093" width="741.4864864864866" height="16.708860759493675" as="geometry" />
        </mxCell>
        <mxCell id="ORUjKMPv2vKjZehIr710-830" value="&lt;span style=&quot;color: rgba(0, 0, 0, 0); font-family: monospace; font-size: 0px; text-align: start; text-wrap: nowrap;&quot;&gt;%3CmxGraphModel%3E%3Croot%3E%3CmxCell%20id%3D%220%22%2F%3E%3CmxCell%20id%3D%221%22%20parent%3D%220%22%2F%3E%3CmxCell%20id%3D%222%22%20value%3D%22%22%20style%3D%22shape%3Dmxgraph.mockup.markup.scratchOut%3Bshadow%3D0%3Bdashed%3D0%3Bhtml%3D1%3BwhiteSpace%3Dwrap%3BstrokeColor%3D%23999999%3BstrokeWidth%3D4%3B%22%20vertex%3D%221%22%20parent%3D%221%22%3E%3CmxGeometry%20x%3D%221665%22%20y%3D%221300%22%20width%3D%22100%22%20height%3D%2260%22%20as%3D%22geometry%22%2F%3E%3C%2FmxCell%3E%3C%2Froot%3E%3C%2FmxGraphModel%3E&lt;/span&gt;" style="shape=mxgraph.mockup.markup.scratchOut;shadow=0;dashed=0;html=1;whiteSpace=wrap;strokeColor=#999999;strokeWidth=4;" vertex="1" parent="ORUjKMPv2vKjZehIr710-828">
          <mxGeometry x="15.945945945945946" y="4.177215189873419" width="31.89189189189189" height="16.708860759493675" as="geometry" />
        </mxCell>
        <mxCell id="ORUjKMPv2vKjZehIr710-831" value="Home&amp;nbsp;" style="text;html=1;align=center;verticalAlign=middle;whiteSpace=wrap;rounded=0;" vertex="1" parent="ORUjKMPv2vKjZehIr710-828">
          <mxGeometry x="274.2702702702703" width="47.83783783783784" height="25.06329113924051" as="geometry" />
        </mxCell>
        <mxCell id="ORUjKMPv2vKjZehIr710-832" value="Dashboard" style="text;html=1;align=center;verticalAlign=middle;whiteSpace=wrap;rounded=0;" vertex="1" parent="ORUjKMPv2vKjZehIr710-828">
          <mxGeometry x="346.8243243243244" width="47.83783783783784" height="25.06329113924051" as="geometry" />
        </mxCell>
        <mxCell id="ORUjKMPv2vKjZehIr710-833" value="Form" style="text;html=1;align=center;verticalAlign=middle;whiteSpace=wrap;rounded=0;" vertex="1" parent="ORUjKMPv2vKjZehIr710-828">
          <mxGeometry x="422.5675675675676" width="47.83783783783784" height="25.06329113924051" as="geometry" />
        </mxCell>
      </root>
    </mxGraphModel>
  </diagram>
</mxfile>
